<?xml version="1.0" encoding="UTF-8"?>
<svg version="1.1" xmlns="http://www.w3.org/2000/svg" width="1762" height="1298">
<path d="M0 0 C2.01439657 1.88787249 4.06714 3.68470661 6.17578125 5.46484375 C16.17152609 14.18541127 25.17739753 23.79129632 33.36328125 34.21484375 C34.27975834 35.32133037 35.19919908 36.42536684 36.12109375 37.52734375 C50.20394895 54.4928998 61.63811318 73.45478887 71.36328125 93.21484375 C81.92169972 90.90972338 92.38059095 88.22027662 102.81716919 85.42062378 C104.24215954 85.0394339 105.66798212 84.66133894 107.09469604 84.28665161 C126.5625808 79.1963172 126.5625808 79.1963172 143.86328125 69.27734375 C144.44021729 68.84550781 145.01715332 68.41367188 145.61157227 67.96875 C161.8134176 55.63672105 170.50961746 38.41451112 175.5546875 19.0234375 C175.91009931 17.70333448 176.26690012 16.38360475 176.62498474 15.06422424 C177.55469924 11.62513882 178.46689084 8.18166371 179.37475586 4.73675537 C180.28490281 1.29386344 181.21005213 -2.14498152 182.13476562 -5.58398438 C183.21206562 -9.59263396 184.28865805 -13.60144892 185.35806274 -17.61221313 C188.23249139 -28.37408147 191.24895723 -39.09047324 194.36328125 -49.78515625 C197.02428447 -47.12415303 197.51184426 -44.23544187 198.4387207 -40.69604492 C198.63580627 -39.96560974 198.83289185 -39.23517456 199.03594971 -38.48260498 C199.46397505 -36.89286051 199.88886984 -35.30227066 200.31102943 -33.71095848 C200.98246216 -31.18089415 201.66235683 -28.65324138 202.3445282 -26.12605286 C204.03988583 -19.83843666 205.72081831 -13.5469828 207.4017334 -7.25549316 C208.81845199 -1.95483398 210.24096927 3.34420474 211.67094994 8.64130211 C212.335065 11.11053595 212.99086217 13.58187666 213.64631653 16.05342102 C219.81737516 39.08126359 229.06500939 59.13187694 250.27929688 72.05517578 C260.20507372 77.57854036 270.45841741 80.94830057 281.36328125 83.83984375 C282.89586267 84.25615599 284.42816349 84.67350241 285.96020508 85.09179688 C294.14091285 87.3164424 302.3391231 89.47477642 310.5385437 91.62924194 C313.66354312 92.45073353 316.78786362 93.27476847 319.91210938 94.09912109 C323.97186591 95.17020888 328.03463513 96.22869042 332.09960938 97.27978516 C333.96232355 97.76823458 335.82495784 98.25698882 337.6875 98.74609375 C338.55243576 98.96651337 339.41737152 99.18693298 340.30851746 99.41403198 C342.34394587 99.95320502 344.35696342 100.57580918 346.36328125 101.21484375 C346.69328125 101.87484375 347.02328125 102.53484375 347.36328125 103.21484375 C335.60305136 106.64258272 323.81076434 109.92062022 311.96875 113.0546875 C308.77632709 113.90378173 305.58397035 114.75312382 302.39169121 115.60275841 C299.137434 116.46799706 295.88205415 117.32855946 292.62426758 118.18041992 C264.04210131 125.57119323 264.04210131 125.57119323 239.36328125 141.21484375 C238.63753906 141.8284375 237.91179687 142.44203125 237.1640625 143.07421875 C222.47764018 156.57764831 216.97125266 175.87619243 212.08611298 194.54989243 C211.45422747 196.96496627 210.81204848 199.3771145 210.1675415 201.78884888 C208.8071323 206.88681672 207.45965397 211.98815419 206.11328125 217.08984375 C204.537048 223.0573704 202.95545116 229.02340458 201.36304474 234.98663712 C200.73139364 237.3616782 200.10813518 239.73881718 199.48529053 242.11618042 C199.10093036 243.56046631 198.71620547 245.00465521 198.33105469 246.44873047 C197.99829529 247.71063202 197.66553589 248.97253357 197.32269287 250.27267456 C196.36328125 253.21484375 196.36328125 253.21484375 194.36328125 255.21484375 C190.92704207 243.404453 187.62608089 231.56363101 184.453125 219.6796875 C183.94611557 217.7859288 183.94611557 217.7859288 183.42886353 215.85391235 C180.62672905 205.38654153 180.62672905 205.38654153 179.24682617 200.17407227 C178.55325489 197.55501997 177.85518688 194.93724468 177.15223694 192.32069397 C176.50001903 189.8926316 175.85391043 187.46291589 175.21531677 185.03123474 C169.10528865 162.41681238 157.28837395 143.20508986 136.58154297 131.26904297 C124.94044472 125.00597792 111.81391652 122.13528286 99.11248779 118.77500916 C92.80653132 117.09524808 86.58338725 115.18754197 80.36328125 113.21484375 C80.59926025 113.86630371 80.83523926 114.51776367 81.07836914 115.18896484 C90.74687821 142.05088027 99.93640565 170.19777913 101.87890625 198.875 C102.90415158 213.3662189 105.76359219 221.42752546 115.55175781 232.16796875 C118.61886071 235.63354701 121.32417613 239.35437895 124.05078125 243.08984375 C124.62022461 243.86263672 125.18966797 244.63542969 125.77636719 245.43164062 C185.18316752 326.74571581 227.86587369 421.82156431 248.67971802 682.92166138 C236.19789118 762.20014232 203.53691459 835.10303251 151.42578125 896.27734375 C150.99644287 896.78233398 150.56710449 897.28732422 150.12475586 897.80761719 C141.16222355 908.20318312 131.6569052 918.10795853 121.95385742 927.80957031 C120.29250417 929.47313183 118.63937435 931.14459479 116.98632812 932.81640625 C111.16959549 938.6629161 105.27183638 944.14746863 98.79077148 949.26098633 C96.25975985 951.29816687 93.87221126 953.44574772 91.48828125 955.65234375 C85.72741911 960.88046159 79.60587221 965.58492212 73.36328125 970.21484375 C72.70328125 970.7046875 72.04328125 971.19453125 71.36328125 971.69921875 C7.27800639 1019.04580241 -65.33141424 1053.81323422 -142.63671875 1073.21484375 C-144.42819336 1073.66633789 -144.42819336 1073.66633789 -146.25585938 1074.12695312 C-199.16387939 1087.30478711 -253.16523096 1093.33805501 -307.63671875 1094.21484375 C-308.64476562 1094.23144043 -309.6528125 1094.24803711 -310.69140625 1094.26513672 C-317.34212611 1094.35638135 -323.9864157 1094.32465158 -330.63671875 1094.21484375 C-331.73725586 1094.19695801 -332.83779297 1094.17907227 -333.97167969 1094.16064453 C-394.94600324 1093.00589165 -456.3777488 1086.01977655 -515.93676758 1072.85375977 C-517.55748169 1072.50462524 -517.55748169 1072.50462524 -519.2109375 1072.1484375 C-520.58125122 1071.83990845 -520.58125122 1071.83990845 -521.97924805 1071.52514648 C-527.55070782 1070.87458834 -532.14517366 1072.65293594 -537.24609375 1074.734375 C-538.55363319 1075.2615861 -539.86125416 1075.78859501 -541.16894531 1076.31542969 C-542.19767761 1076.73350891 -542.19767761 1076.73350891 -543.24719238 1077.16003418 C-614.08535708 1105.87602438 -688.38767217 1125.51952299 -764.63671875 1132.21484375 C-765.65419189 1132.31055664 -766.67166504 1132.40626953 -767.7199707 1132.50488281 C-781.63671102 1133.63663842 -795.62126037 1133.46076954 -809.57421875 1133.46484375 C-810.26678772 1133.46528561 -810.95935669 1133.46572746 -811.6729126 1133.46618271 C-832.46917156 1133.47313816 -853.01719928 1133.23390112 -873.63671875 1130.21484375 C-874.8803418 1130.03791992 -876.12396484 1129.86099609 -877.40527344 1129.67871094 C-913.96939917 1124.35008552 -948.73993389 1114.95945422 -982.63671875 1100.21484375 C-983.96074707 1099.64080811 -983.96074707 1099.64080811 -985.31152344 1099.05517578 C-1011.22582193 1087.67355041 -1035.49227924 1072.0099011 -1056.63671875 1053.21484375 C-1057.3328125 1052.61671875 -1058.02890625 1052.01859375 -1058.74609375 1051.40234375 C-1063.10193417 1047.65848091 -1067.33782556 1043.78015815 -1071.57421875 1039.90234375 C-1072.15494141 1039.37390869 -1072.73566406 1038.84547363 -1073.33398438 1038.30102539 C-1077.52037618 1034.44752889 -1077.52037618 1034.44752889 -1078.63671875 1032.21484375 C-1087.6952689 1033.64332119 -1096.5020804 1035.87302464 -1105.32421875 1038.33984375 C-1106.03160187 1038.53737244 -1106.73898499 1038.73490112 -1107.46780396 1038.93841553 C-1121.96982181 1043.02881775 -1135.30750948 1047.89756386 -1146.63671875 1058.21484375 C-1147.39339844 1058.89160156 -1148.15007812 1059.56835938 -1148.9296875 1060.265625 C-1163.31471576 1073.83140542 -1169.13398124 1091.63633949 -1174.03515625 1110.203125 C-1174.51881255 1112.00085795 -1175.00350113 1113.79831346 -1175.48916626 1115.59550476 C-1176.75206383 1120.27963526 -1178.00109456 1124.96735017 -1179.24707031 1129.65600586 C-1180.52599424 1134.45850405 -1181.81827922 1139.2574033 -1183.109375 1144.05664062 C-1185.63142621 1153.43927371 -1188.13881239 1162.8257561 -1190.63671875 1172.21484375 C-1192.63671875 1171.21484375 -1192.63671875 1171.21484375 -1193.64082336 1168.2141571 C-1194.00623679 1166.85550765 -1194.36260118 1165.49440697 -1194.7121582 1164.1315918 C-1194.90924377 1163.38994278 -1195.10632935 1162.64829376 -1195.30938721 1161.88417053 C-1195.73797804 1160.26725921 -1196.16283945 1158.64935591 -1196.58446693 1157.03061485 C-1197.25468389 1154.45858759 -1197.93494758 1151.88941029 -1198.6179657 1149.320755 C-1200.31517781 1142.92963977 -1201.99535377 1136.53407197 -1203.6751709 1130.1383667 C-1205.09053704 1124.75172004 -1206.51289243 1119.36701241 -1207.94438744 1113.98462868 C-1208.60969734 1111.47185822 -1209.2649131 1108.95660121 -1209.91975403 1106.44108582 C-1216.33675714 1082.10419997 -1226.77837341 1062.66823233 -1248.63671875 1049.21484375 C-1249.41144531 1048.73402344 -1250.18617187 1048.25320313 -1250.984375 1047.7578125 C-1256.03680699 1044.95090584 -1261.41979862 1043.26005752 -1266.9375 1041.6171875 C-1267.79028534 1041.3623761 -1268.64307068 1041.1075647 -1269.521698 1040.84503174 C-1277.74479969 1038.42160483 -1286.01888362 1036.19210163 -1294.30078125 1033.98046875 C-1295.3301584 1033.70548585 -1295.3301584 1033.70548585 -1296.38033104 1033.42494774 C-1302.80763836 1031.70921886 -1309.23666907 1030.0000193 -1315.66796875 1028.29931641 C-1319.22628948 1027.35799942 -1322.78280853 1026.41012436 -1326.33826828 1025.45806122 C-1327.68123437 1025.0998779 -1329.02488299 1024.74424333 -1330.36922073 1024.39124298 C-1332.22906532 1023.90275629 -1334.08652491 1023.40521584 -1335.94384766 1022.90722656 C-1336.99827057 1022.62776184 -1338.05269348 1022.34829712 -1339.1390686 1022.06036377 C-1341.63671875 1021.21484375 -1341.63671875 1021.21484375 -1343.63671875 1019.21484375 C-1334.49793854 1016.3261578 -1325.308746 1013.72886717 -1316.04296875 1011.28125 C-1314.68010452 1010.91822094 -1313.31735464 1010.55476231 -1311.95471191 1010.19090271 C-1306.2446477 1008.66651788 -1300.53354318 1007.14613114 -1294.81982422 1005.63549805 C-1291.29534683 1004.70336438 -1287.77282814 1003.76411164 -1284.25138855 1002.82056999 C-1282.29611832 1002.29876981 -1280.33882364 1001.78457392 -1278.38146973 1001.27064514 C-1256.13268129 995.29806473 -1234.94366075 985.9526448 -1222.55419922 965.42089844 C-1221.45261832 963.47728446 -1220.4080451 961.51424348 -1219.38671875 959.52734375 C-1219.08161377 958.94138428 -1218.77650879 958.3554248 -1218.4621582 957.75170898 C-1216.29673424 953.29155581 -1214.75728707 948.66098532 -1213.28881836 943.93408203 C-1213.07036349 943.23214187 -1212.85190863 942.5302017 -1212.62683392 941.80699062 C-1210.52165092 934.96515407 -1208.64953216 928.06948138 -1206.83567238 921.14560127 C-1206.26330861 918.96282854 -1205.68553071 916.78154902 -1205.10636902 914.60057068 C-1203.46437586 908.41468275 -1201.82962139 902.22691028 -1200.20336914 896.03686523 C-1199.19942695 892.2170447 -1198.18773819 888.39934765 -1197.17105675 884.58289909 C-1196.78728775 883.13595525 -1196.40654267 881.68820587 -1196.02887917 880.23965645 C-1195.5054636 878.23270834 -1194.97229788 876.22859714 -1194.43676758 874.22485352 C-1193.98639885 872.51520164 -1193.98639885 872.51520164 -1193.52693176 870.77101135 C-1192.63671875 868.21484375 -1192.63671875 868.21484375 -1190.63671875 867.21484375 C-1188.62802192 874.57143992 -1186.62005892 881.92823614 -1184.61254883 889.28515625 C-1183.93302064 891.77510859 -1183.2533392 894.26501911 -1182.57348633 896.75488281 C-1181.91312277 899.173446 -1181.25302302 901.59208123 -1180.59318542 904.01078796 C-1179.93038593 906.43957732 -1179.26673605 908.86813477 -1178.60224915 911.29646301 C-1176.94527174 917.36287141 -1175.31094281 923.43384792 -1173.72143555 929.51831055 C-1173.41367691 930.68794342 -1173.10591827 931.85757629 -1172.78883362 933.06265259 C-1172.21231227 935.25842882 -1171.64188619 937.45581892 -1171.07896423 939.65512085 C-1168.73852799 948.5385239 -1165.2946442 956.32331716 -1160.63671875 964.21484375 C-1160.1571875 965.065625 -1159.67765625 965.91640625 -1159.18359375 966.79296875 C-1148.9852251 983.55580458 -1131.16080582 994.23823031 -1112.46484375 999.02734375 C-1110.19074274 999.48987277 -1107.93067744 999.87249784 -1105.63671875 1000.21484375 C-1106.67119141 998.6525 -1106.67119141 998.6525 -1107.7265625 997.05859375 C-1132.05635249 960.05658452 -1149.06943716 919.74383712 -1157.63671875 876.21484375 C-1157.82959473 875.23950684 -1158.0224707 874.26416992 -1158.22119141 873.25927734 C-1160.46029221 861.63430325 -1162.05929635 849.92128657 -1163.32421875 838.15234375 C-1163.52736694 836.27240723 -1163.52736694 836.27240723 -1163.73461914 834.35449219 C-1164.54955321 825.98462697 -1164.63931951 817.75296377 -1164.4453125 809.34765625 C-1164.40350331 806.19885316 -1164.36635114 803.05001527 -1164.32925415 799.90115356 C-1164.284817 797.84573965 -1164.20897082 795.79072474 -1164.09921265 793.73776245 C-1163.32303707 780.83841462 -1163.32303707 780.83841462 -1169.03564453 769.72412109 C-1172.58758628 766.18606547 -1176.44016568 763.07420188 -1180.3994751 760.006073 C-1183.75495744 757.31953588 -1186.73456534 754.31372731 -1189.73828125 751.24609375 C-1190.8351704 750.14897211 -1191.93281738 749.05260758 -1193.03125 747.95703125 C-1193.56314941 747.42303711 -1194.09504883 746.88904297 -1194.64306641 746.33886719 C-1196.29472651 744.68172646 -1197.95183608 743.03016478 -1199.609375 741.37890625 C-1205.16329611 735.82843581 -1210.53757842 730.18971739 -1215.63671875 724.21484375 C-1217.25639692 722.43914154 -1218.88083593 720.66776068 -1220.51171875 718.90234375 C-1224.54951197 714.46987901 -1228.40979309 709.93742198 -1232.171875 705.26953125 C-1233.9775705 703.03172795 -1235.79651187 700.81002476 -1237.6328125 698.59765625 C-1269.31557227 660.28900425 -1294.76003626 617.39920432 -1310.63671875 570.21484375 C-1310.96752441 569.23354492 -1311.29833008 568.25224609 -1311.63916016 567.24121094 C-1341.73575054 476.50499421 -1333.79472245 376.05895632 -1286.85668945 274.44677734 C-1274.38070433 250.14410068 -1259.3616032 227.024947 -1241.63671875 206.21484375 C-1240.72761813 205.13171722 -1239.81877877 204.04837138 -1238.91015625 202.96484375 C-1226.74574862 188.54008206 -1213.97672653 174.50627899 -1199.63671875 162.21484375 C-1198.67507813 161.3640625 -1197.7134375 160.51328125 -1196.72265625 159.63671875 C-1163.81267266 130.67692446 -1125.35489196 107.7426144 -1084.51171875 91.90234375 C-1083.58593018 91.54253418 -1082.6601416 91.18272461 -1081.70629883 90.81201172 C-1059.33929566 82.41092225 -1036.29782619 76.29495652 -1013.21463776 70.24966812 C-1008.88305433 69.11344219 -1004.55362099 67.969086 -1000.22412109 66.82495117 C-999.34021069 66.59139262 -998.45630028 66.35783407 -997.54560471 66.11719799 C-995.7433749 65.64098851 -993.94115045 65.16475873 -992.13893127 64.68850899 C-989.40255637 63.96571072 -986.6659656 63.24373492 -983.92932129 62.5219574 C-966.0293781 57.79954227 -948.14851052 53.00697263 -930.27068329 48.20162201 C-926.03884945 47.06432672 -921.80677272 45.92793607 -917.57470703 44.79150391 C-915.85080908 44.32857502 -914.12691178 43.8656437 -912.40301514 43.40270996 C-911.54310722 43.17179153 -910.68319931 42.94087311 -909.79723358 42.70295715 C-907.16942668 41.9972444 -904.54164962 41.29142062 -901.91387939 40.58557129 C-882.67098561 35.41694464 -863.42527786 30.25882146 -844.17947388 25.1010437 C-838.07851584 23.46601717 -831.9776088 21.83080042 -825.87670898 20.19555664 C-808.07589187 15.42439955 -790.27496802 10.65364098 -772.47376919 5.88390827 C-767.08745954 4.44066919 -761.70117614 2.9973323 -756.31495667 1.55375671 C-754.1866159 0.98334416 -752.05827423 0.41293501 -749.92993164 -0.1574707 C-748.88285569 -0.43809262 -747.83577974 -0.71871454 -746.75697422 -1.00784016 C-740.51309074 -2.68107615 -734.26889633 -4.35314593 -728.02444935 -6.02427769 C-701.71634142 -13.06350032 -701.71634142 -13.06350032 -675.4375 -20.2109375 C-626.35418764 -33.65995634 -577.32740146 -43.86536116 -526.63671875 -48.78515625 C-525.4859082 -48.89843262 -524.33509766 -49.01170898 -523.14941406 -49.12841797 C-510.51828175 -50.31645761 -497.99257223 -50.82855831 -485.3125 -50.7734375 C-460.42003684 -50.72136098 -438.47393676 -51.86941034 -414.81297302 -59.78489685 C-407.27728829 -62.29419005 -399.61969298 -64.17948816 -391.88671875 -65.97265625 C-391.19695953 -66.13375885 -390.50720032 -66.29486145 -389.79653931 -66.46084595 C-360.44330884 -73.26862582 -330.62381766 -77.92337886 -300.63671875 -80.78515625 C-299.42032715 -80.9022998 -298.20393555 -81.01944336 -296.95068359 -81.14013672 C-197.24321358 -90.28349785 -83.07102476 -73.29326244 0 0 Z M-428.63671875 -51.78515625 C-428.63671875 -51.45515625 -428.63671875 -51.12515625 -428.63671875 -50.78515625 C-424.05206339 -49.93911457 -419.50180819 -49.50217883 -414.85546875 -49.20703125 C-413.29543583 -49.1007495 -411.73546088 -48.99361417 -410.17553711 -48.88574219 C-409.35600555 -48.82930542 -408.536474 -48.77286865 -407.69210815 -48.71472168 C-331.06300722 -43.33004825 -255.65215481 -25.92606449 -90.21728516 49.65332031 C-87.69873205 51.17731895 -85.16259524 52.66590844 -82.6171875 54.14453125 C-57.41096052 68.86145808 -33.36984942 85.91486061 -10.63671875 104.21484375 C-10.00024414 104.72515137 -9.36376953 105.23545898 -8.70800781 105.76123047 C4.31154579 116.21055009 17.04264319 126.92111903 29.24609375 138.31640625 C31.18239652 140.12433535 33.13344192 141.90601358 35.10546875 143.67578125 C42.00862088 149.8749292 48.60658536 156.3518619 55.17578125 162.90234375 C56.07167969 163.7936499 56.96757813 164.68495605 57.890625 165.60327148 C62.3545019 170.07755855 66.67985906 174.60732396 70.79663086 179.40307617 C73.20053439 182.18309302 75.72403662 184.84751555 78.23828125 187.52734375 C82.82714833 192.45022207 87.15099957 197.49758599 91.328125 202.77734375 C93.53293374 205.41803599 95.89991617 207.81574036 98.36328125 210.21484375 C98.68200138 202.71554666 97.49080326 195.59616133 96.23828125 188.21484375 C96.12624359 187.55323242 96.01420593 186.89162109 95.89877319 186.20996094 C91.91820886 162.89257835 85.51306909 140.40655355 77.36328125 118.21484375 C76.95762939 116.97726318 76.55197754 115.73968262 76.1340332 114.46459961 C74.64650466 111.0035818 74.64650466 111.0035818 71.37646484 109.70166016 C70.18359863 109.40952637 68.99073242 109.11739258 67.76171875 108.81640625 C67.12464996 108.6511142 66.48758118 108.48582214 65.83120728 108.31552124 C63.80602068 107.79601105 61.77377922 107.31716947 59.73828125 106.83984375 C57.69865474 106.33233781 55.66118347 105.81684254 53.62393188 105.29989624 C51.78295178 104.83744008 49.93720488 104.3940857 48.09130859 103.95166016 C45.36328125 103.21484375 45.36328125 103.21484375 44.36328125 102.21484375 C51.62328125 100.23484375 58.88328125 98.25484375 66.36328125 96.21484375 C65.52887789 92.04282693 64.86689949 89.91767848 62.87890625 86.36328125 C62.36263672 85.439104 61.84636719 84.51492676 61.31445312 83.56274414 C60.75306641 82.58168701 60.19167969 81.60062988 59.61328125 80.58984375 C59.03126953 79.56947021 58.44925781 78.54909668 57.84960938 77.49780273 C45.99028461 56.98493677 31.81271212 38.27072692 15.36328125 21.21484375 C14.66928223 20.49361328 13.9752832 19.77238281 13.26025391 19.02929688 C4.03155853 9.49109663 -5.20115829 0.29421245 -15.9375 -7.5390625 C-17.7092689 -8.8383597 -19.45480005 -10.16815831 -21.19921875 -11.50390625 C-95.83815852 -68.16056008 -193.859066 -83.46758583 -428.63671875 -51.78515625 Z M-1160.63671875 778.21484375 C-1161.86610408 851.99057253 -1149.77409499 929.38691792 -1106.15202332 990.99635315 C-1105.07043234 992.57986281 -1104.05062144 994.20629774 -1103.07476807 995.85707092 C-1097.83225783 1004.12912439 -1092.97081377 1006.42344349 -1083.60546875 1008.5703125 C-1081.75798035 1009.04637688 -1081.75798035 1009.04637688 -1079.87316895 1009.53205872 C-1076.63062073 1010.35969072 -1073.38353433 1011.15023735 -1070.12792969 1011.92358398 C-1066.79496738 1012.72494974 -1063.47436622 1013.57456534 -1060.15234375 1014.41992188 C-1053.65750618 1016.06240471 -1047.1523439 1017.6569952 -1040.63671875 1019.21484375 C-1044.21160922 1021.08207319 -1047.6801492 1022.1330331 -1051.58984375 1023.16015625 C-1052.58017609 1023.42226395 -1052.58017609 1023.42226395 -1053.59051514 1023.68966675 C-1055.68818957 1024.243845 -1057.78740188 1024.79192397 -1059.88671875 1025.33984375 C-1061.31390807 1025.71574366 -1062.74099267 1026.09204141 -1064.16796875 1026.46875 C-1067.6563512 1027.38872486 -1071.14613853 1028.3032385 -1074.63671875 1029.21484375 C-1060.67493349 1045.68346898 -1043.69568535 1059.43805783 -1025.63671875 1071.21484375 C-1024.91339355 1071.69002441 -1024.19006836 1072.16520508 -1023.44482422 1072.65478516 C-960.63460149 1113.61123514 -885.64532536 1129.41602533 -811.44921875 1129.46484375 C-810.37868256 1129.46585083 -809.30814636 1129.46685791 -808.20516968 1129.46789551 C-788.21761429 1129.45528214 -768.4972002 1128.4196999 -748.63671875 1126.21484375 C-747.35990234 1126.075625 -746.08308594 1125.93640625 -744.76757812 1125.79296875 C-711.9752073 1122.09419481 -679.53570057 1115.6020465 -647.63671875 1107.21484375 C-646.98310364 1107.04359985 -646.32948853 1106.87235596 -645.65606689 1106.69592285 C-608.21174767 1096.85743463 -571.27613733 1084.34843343 -535.63671875 1069.21484375 C-538.93480194 1067.01612163 -541.89991555 1066.30594251 -545.6953125 1065.47265625 C-547.18782417 1065.13218657 -548.68025164 1064.79134765 -550.17260742 1064.45019531 C-550.96815033 1064.27041138 -551.76369324 1064.09062744 -552.58334351 1063.90539551 C-649.38694086 1041.92619572 -743.73618393 1008.03106543 -948.38671875 918.46484375 C-949.33646576 917.9926944 -950.28621277 917.52054504 -951.26473999 917.03408813 C-969.67618809 907.86782475 -987.78294866 898.1607381 -1005.57421875 887.83984375 C-1006.6528418 887.21537354 -1007.73146484 886.59090332 -1008.84277344 885.94750977 C-1019.87536258 879.53443392 -1030.79461637 872.94449022 -1041.63671875 866.21484375 C-1042.54873047 865.64942871 -1043.46074219 865.08401367 -1044.40039062 864.50146484 C-1058.80873607 855.53587445 -1072.80269561 846.04085548 -1086.63671875 836.21484375 C-1087.4781543 835.61720215 -1088.31958984 835.01956055 -1089.18652344 834.40380859 C-1098.82686124 827.53685066 -1108.31458164 820.50790873 -1117.63671875 813.21484375 C-1118.78755342 812.3226496 -1119.93860107 811.43073012 -1121.08984375 810.5390625 C-1128.04152107 805.13657227 -1134.82761057 799.57512394 -1141.5234375 793.859375 C-1147.78921342 788.5169354 -1154.20547031 783.35596342 -1160.63671875 778.21484375 Z " fill="#37C9C9" transform="translate(1366.63671875,122.78515625)"/>
<path d="M0 0 C8.5714603 8.50430939 15.64756437 18.07064876 22.55322266 27.93945312 C24.13382982 30.19060473 25.72859364 32.43134571 27.32421875 34.671875 C35.27875826 45.88159904 42.80936899 57.28677682 50 69 C50.47083008 69.76151367 50.94166016 70.52302734 51.42675781 71.30761719 C93.86095024 140.09230881 124.59033696 215.53125979 137.84545898 498.02368164 C122.11131629 564.38860003 91.29635616 625.13548344 47.0625 677.0625 C46.63316162 677.56749023 46.20382324 678.07248047 45.76147461 678.59277344 C36.7989423 688.98833937 27.29362395 698.89311478 17.59057617 708.59472656 C15.92922292 710.25828808 14.2760931 711.92975104 12.62304688 713.6015625 C6.80631424 719.44807235 0.90855513 724.93262488 -5.57250977 730.04614258 C-8.1035214 732.08332312 -10.49106999 734.23090397 -12.875 736.4375 C-18.63586214 741.66561784 -24.75740904 746.37007837 -31 751 C-31.66 751.48984375 -32.32 751.9796875 -33 752.484375 C-97.08527486 799.83095866 -169.69469549 834.59839047 -247 854 C-248.79147461 854.45149414 -248.79147461 854.45149414 -250.61914062 854.91210938 C-303.52716064 868.08994336 -357.52851221 874.12321126 -412 875 C-413.51207031 875.02489502 -413.51207031 875.02489502 -415.0546875 875.05029297 C-421.70540736 875.1415376 -428.34969695 875.10980783 -435 875 C-436.10053711 874.98211426 -437.20107422 874.96422852 -438.33496094 874.94580078 C-498.36306415 873.80896775 -558.01101976 866.23243996 -616.875 854.625 C-618.09227783 854.386604 -619.30955566 854.14820801 -620.5637207 853.90258789 C-622.19893677 853.56795532 -622.19893677 853.56795532 -623.8671875 853.2265625 C-624.79644043 853.03658691 -625.72569336 852.84661133 -626.68310547 852.65087891 C-629 852 -629 852 -632 850 C-631.27337158 849.67950684 -630.54674316 849.35901367 -629.7980957 849.02880859 C-556.13294105 816.46154107 -485.73390587 777.09263379 -421 729 C-420.31454102 728.49178711 -419.62908203 727.98357422 -418.92285156 727.45996094 C-409.8730839 720.73883763 -400.90307967 713.91409379 -392 707 C-391.45698242 706.57928223 -390.91396484 706.15856445 -390.35449219 705.72509766 C-375.92697226 694.53220246 -361.87077454 682.87403768 -348 671 C-347.40477539 670.49114258 -346.80955078 669.98228516 -346.19628906 669.45800781 C-338.31060639 662.70530193 -330.56630726 655.82906571 -322.96875 648.75390625 C-320.40331624 646.36599135 -317.80347727 644.02007973 -315.1875 641.6875 C-302.04716084 629.8813118 -289.41550111 617.57772639 -276.94213867 605.07250977 C-274.41244696 602.53739324 -271.87736467 600.00775363 -269.34179688 597.47851562 C-267.70540798 595.84146683 -266.06932883 594.20410834 -264.43359375 592.56640625 C-263.68871201 591.82354874 -262.94383026 591.08069122 -262.17637634 590.31532288 C-258.12186705 586.24277779 -254.24241527 582.07580129 -250.48982239 577.72340393 C-248.82734634 575.80027687 -247.10922346 573.94181909 -245.3515625 572.10546875 C-244.74344727 571.46577148 -244.13533203 570.82607422 -243.50878906 570.16699219 C-242.88713867 569.51375977 -242.26548828 568.86052734 -241.625 568.1875 C-236.56295674 562.83279574 -231.76261003 557.4049314 -227.171875 551.640625 C-224.71956562 548.65904021 -222.12906665 545.82446415 -219.5 543 C-214.41529834 537.52721363 -209.67948414 531.82410616 -205 526 C-203.54276936 524.22825915 -202.08442146 522.45743667 -200.625 520.6875 C-195.31937336 514.20079473 -190.14918818 507.61104979 -185 501 C-184.19820312 499.97261719 -183.39640625 498.94523437 -182.5703125 497.88671875 C-151.36770256 457.63023675 -122.88136613 415.03105195 -98.27563477 370.42480469 C-97.76057373 369.49958008 -97.2455127 368.57435547 -96.71484375 367.62109375 C-96.26230225 366.8005249 -95.80976074 365.97995605 -95.34350586 365.13452148 C-94.06295859 363.1000267 -92.71936897 361.65933992 -91 360 C-90.19614617 361.90386434 -89.39229258 363.80772878 -88.58843994 365.71159363 C-87.85524877 367.4480963 -87.12205363 369.18459729 -86.38885498 370.9210968 C-84.30154457 375.86467709 -82.214308 380.80828853 -80.12719727 385.75195312 C-76.05773535 395.39093771 -71.98781959 405.02972926 -67.91532898 414.66743469 C-66.17424496 418.78784459 -64.43350013 422.90839774 -62.69277954 427.02896118 C-61.85813108 429.00443588 -61.02331346 430.9798391 -60.18832397 432.95516968 C-59.01965306 435.71993271 -57.85156263 438.48494033 -56.68359375 441.25 C-56.33858826 442.06576004 -55.99358276 442.88152008 -55.63812256 443.72200012 C-55.01852641 445.18942615 -54.40099141 446.65772524 -53.78611755 448.12713623 C-53.1226414 449.70781643 -52.44564921 451.28281334 -51.765625 452.85644531 C-49.26525344 459.85684782 -54.22066272 467.95121037 -56.9375 474.25 C-57.43040527 475.40008545 -57.92331055 476.5501709 -58.43115234 477.73510742 C-68.88229302 501.78276408 -81.95476462 529.6709537 -107.72265625 540.22265625 C-118.54777399 543.91767929 -129.33474505 544.38538444 -140 540 C-145.76238267 537.01288251 -150.88139415 532.96147421 -156 529 C-163.40044272 538.05320825 -167.96650097 547.14177662 -167 559 C-165.73727983 567.05615467 -162.2081092 572.72794886 -156 578 C-146.1218971 583.9498723 -134.63971739 584.26371533 -123.58984375 581.75 C-94.23843175 573.25004358 -76.07478412 551.52795109 -61.81982422 525.84179688 C-40.98495066 487.58210419 -27.15442947 445.52765527 -11.74949646 404.88092041 C-7.06172308 392.5169967 -2.34415537 380.16447238 2.375 367.8125 C3.02633408 366.1075235 3.02633408 366.1075235 3.69082642 364.36810303 C5.45513438 359.74973745 7.21948627 355.13138868 8.98405457 350.51312256 C12.14787563 342.23226469 15.30891691 333.9503491 18.46875 325.66796875 C26.21762266 305.35837732 33.96702333 285.04898655 41.76275635 264.75732422 C42.41455751 263.06066666 43.06605293 261.36389162 43.71722412 259.66699219 C44.59687866 257.37524089 45.47787898 255.08401226 46.359375 252.79296875 C46.6155661 252.12504807 46.8717572 251.45712738 47.13571167 250.76896667 C48.02190275 248.46953243 48.89719928 246.20560145 50 244 C52.43892049 243.18266892 54.83155366 242.48271463 57.31640625 241.8359375 C58.04746078 241.63900299 58.77851532 241.44206848 59.53172302 241.23916626 C61.8733699 240.61022476 64.21781651 239.99251402 66.5625 239.375 C68.14798304 238.95125568 69.73327236 238.5267858 71.31835938 238.1015625 C75.21003935 237.05926745 79.10426678 236.02703686 83 235 C83.33 231.04 83.66 227.08 84 223 C53.31 223 22.62 223 -9 223 C-9 227.29 -9 231.58 -9 236 C-7.9996875 236.09152344 -6.999375 236.18304687 -5.96875 236.27734375 C0.95728188 237.14309773 7.71962539 238.94384082 14.5 240.5625 C15.90876352 240.89556593 17.31761702 241.2282515 18.7265625 241.56054688 C22.15209093 242.36931218 25.57637046 243.1832289 29 244 C28.2847605 248.27407928 26.94671416 252.23767554 25.47265625 256.296875 C25.08309753 257.3821347 25.08309753 257.3821347 24.68566895 258.48931885 C23.81501981 260.91091133 22.93891541 263.33048895 22.0625 265.75 C21.43274019 267.49605006 20.80310467 269.24214496 20.17358398 270.98828125 C14.62489308 286.35635597 8.99004803 301.6928742 3.34399414 317.02539062 C-1.18572568 329.32813313 -5.69819444 341.63701053 -10.19140625 353.953125 C-10.45379026 354.67227585 -10.71617428 355.3914267 -10.98650932 356.13237 C-13.59579526 363.28434056 -16.20383736 370.43676349 -18.81011105 377.58983231 C-19.77945456 380.24981324 -20.74939224 382.90957726 -21.71945 385.56929779 C-22.38899238 387.40578899 -23.05767441 389.24259379 -23.72633362 391.07940674 C-24.12924118 392.18403259 -24.53214874 393.28865845 -24.94726562 394.42675781 C-25.29712524 395.38704895 -25.64698486 396.34734009 -26.00744629 397.33673096 C-26.96579007 399.90820622 -27.9696125 402.4566412 -29 405 C-31.21926409 401.67110386 -32.64073396 398.23379406 -34.1328125 394.546875 C-34.44191559 393.79079453 -34.75101868 393.03471405 -35.06948853 392.25572205 C-36.09104387 389.75504794 -37.10799888 387.25252931 -38.125 384.75 C-38.83592214 383.00742925 -39.54719006 381.26499953 -40.25878906 379.52270508 C-41.74772078 375.87650583 -43.23513115 372.22969099 -44.72167969 368.58251953 C-46.96511754 363.08159068 -49.21917074 357.58505895 -51.4765625 352.08984375 C-51.83730865 351.21157928 -52.19805481 350.33331482 -52.56973267 349.42843628 C-53.97050368 346.0185098 -55.37151047 342.60868021 -56.77252197 339.19885254 C-57.10169617 338.39749878 -57.43087036 337.59614502 -57.77001953 336.77050781 C-58.08935455 335.99335419 -58.40868958 335.21620056 -58.73770142 334.41549683 C-59.34990115 332.92212626 -59.96014225 331.42795093 -60.56820679 329.93289185 C-61.80144321 326.90133043 -63.04994604 323.88698199 -64.37304688 320.89306641 C-64.93862305 319.5944165 -64.93862305 319.5944165 -65.515625 318.26953125 C-65.83305664 317.57061768 -66.15048828 316.8717041 -66.47753906 316.15161133 C-67.64981642 311.32391024 -65.75754536 307.0078814 -63.734375 302.66796875 C-63.26330322 301.64018311 -62.79223145 300.61239746 -62.30688477 299.5534668 C-61.79311279 298.44269775 -61.27934082 297.33192871 -60.75 296.1875 C-37.2446404 244.18972287 -18.87713373 189.23797664 -9 133 C-8.75145581 131.61338724 -8.50258141 130.22683365 -8.25341797 128.84033203 C-0.55634652 85.76891691 0.43284463 43.64565795 0 0 Z " fill="#37C9C9" transform="translate(1471,342)"/>
<path d="M0 0 C-2.469584 1.64638933 -4.06262047 2.47388155 -6.79248047 3.3659668 C-7.55515732 3.61830582 -8.31783417 3.87064484 -9.10362244 4.13063049 C-10.34783714 4.53583168 -10.34783714 4.53583168 -11.6171875 4.94921875 C-13.42137857 5.54762881 -15.22532297 6.14678294 -17.02905273 6.74658203 C-18.45784256 7.22010101 -18.45784256 7.22010101 -19.91549683 7.70318604 C-90.49087609 31.17615677 -157.6965201 64.25928062 -220.99658203 103.15527344 C-223.41979695 104.64363402 -225.84711622 106.1247087 -228.27734375 107.6015625 C-255.09121317 124.00797862 -280.78355924 142.26162242 -306 161 C-306.71075684 161.52625977 -307.42151367 162.05251953 -308.15380859 162.59472656 C-316.69308363 168.91937184 -325.08368871 175.39484253 -333.3515625 182.0703125 C-336.29659236 184.44543759 -339.27415314 186.77449121 -342.26513672 189.09130859 C-349.79040875 194.93064859 -356.98317852 201.10221742 -364.14306641 207.38134766 C-366.55316475 209.48218279 -368.98757798 211.5535483 -371.42333984 213.62451172 C-377.52079685 218.81064108 -383.47212072 224.12689151 -389.34765625 229.5625 C-391.47490534 231.51743878 -393.62272252 233.42882045 -395.8125 235.3125 C-401.69166518 240.41585782 -407.32036702 245.7977264 -412.99560547 251.125 C-414.90804527 252.91398145 -416.8292541 254.69292416 -418.75390625 256.46875 C-426.85245028 263.96290947 -434.75111622 271.64583988 -442.5625 279.4375 C-443.49070557 280.36111328 -444.41891113 281.28472656 -445.37524414 282.23632812 C-449.93711911 286.80854936 -454.35234185 291.43834952 -458.55834961 296.34008789 C-460.28256901 298.32534915 -462.10877606 300.17399068 -464 302 C-467.14920881 305.10713922 -470.07976967 308.32490304 -472.9609375 311.6796875 C-475.03564374 314.04056012 -477.16511178 316.33969449 -479.31005859 318.63647461 C-484.3595355 324.04437773 -489.16409748 329.55772402 -493.796875 335.33203125 C-496.06927818 338.08389538 -498.44694831 340.69738143 -500.875 343.3125 C-505.11797039 347.92271357 -508.99876663 352.71926958 -512.82592773 357.67163086 C-515.92510666 361.67041369 -519.13377378 365.54424092 -522.4375 369.375 C-528.0580439 375.93113754 -533.19971619 382.8055305 -538.32861328 389.74902344 C-540.1323432 392.17823609 -541.9529633 394.59407364 -543.77734375 397.0078125 C-550.72490739 406.20554295 -557.56086764 415.43727769 -564 425 C-567.53081446 423.66094335 -570.75412354 422.06254204 -574.0625 420.25 C-597.21940294 408.65737662 -623.88289336 406.9004413 -649.3371582 406.79467773 C-650.82674412 406.78507142 -652.31632748 406.77505986 -653.8059082 406.76467896 C-657.80706026 406.73792154 -661.80822376 406.71675638 -665.80941415 406.69667697 C-670.00676765 406.6746349 -674.20408708 406.64733636 -678.40141296 406.62062073 C-686.33059635 406.57093786 -694.25979891 406.52590971 -702.18901938 406.48259836 C-711.22423798 406.43301581 -720.25942236 406.37817643 -729.29460776 406.32291877 C-747.86304016 406.20947397 -766.4315055 406.10274144 -785 406 C-785 410.29 -785 414.58 -785 419 C-781.7 419 -778.4 419 -775 419 C-759.655 420.485 -759.655 420.485 -744 422 C-744 517.37 -744 612.74 -744 711 C-776 715 -776 715 -779 715 C-779 718.96 -779 722.92 -779 727 C-754.25 727 -729.5 727 -704 727 C-705.60875 735.105625 -705.60875 735.105625 -707.25 743.375 C-712.45100934 770.41015188 -715.29846398 797.5333352 -717 825 C-721.00876851 823.12788476 -723.93639579 820.5196188 -727.125 817.5 C-727.74955078 816.9126709 -728.37410156 816.3253418 -729.01757812 815.72021484 C-735.95552005 809.13502208 -742.72741868 802.37932255 -749.5 795.625 C-750.34863617 794.78038208 -750.34863617 794.78038208 -751.2144165 793.91870117 C-757.36348005 787.79169485 -763.36334729 781.60768896 -769 775 C-770.61967817 773.22429779 -772.24411718 771.45291693 -773.875 769.6875 C-777.91279322 765.25503526 -781.77307434 760.72257823 -785.53515625 756.0546875 C-787.34085175 753.8168842 -789.15979312 751.59518101 -790.99609375 749.3828125 C-822.67885352 711.0741605 -848.12331751 668.18436057 -864 621 C-864.4962085 619.52805176 -864.4962085 619.52805176 -865.00244141 618.02636719 C-895.09903179 527.29015046 -887.1580037 426.84411257 -840.2199707 325.23193359 C-827.74398558 300.92925693 -812.72488445 277.81010325 -795 257 C-794.09089938 255.91687347 -793.18206002 254.83352763 -792.2734375 253.75 C-780.10902987 239.32523831 -767.34000778 225.29143524 -753 213 C-752.03835938 212.14921875 -751.07671875 211.2984375 -750.0859375 210.421875 C-717.17595391 181.46208071 -678.71817321 158.52777065 -637.875 142.6875 C-636.94921143 142.32769043 -636.02342285 141.96788086 -635.06958008 141.59716797 C-612.70257691 133.1960785 -589.66110744 127.08011277 -566.57791901 121.03482437 C-562.24633558 119.89859844 -557.91690224 118.75424225 -553.58740234 117.61010742 C-552.26153673 117.2597696 -552.26153673 117.2597696 -550.90888596 116.90235424 C-549.10665615 116.42614476 -547.3044317 115.94991498 -545.50221252 115.47366524 C-542.76583762 114.75086697 -540.02924685 114.02889117 -537.29260254 113.30711365 C-519.39265935 108.58469852 -501.51179177 103.79212888 -483.63396454 98.98677826 C-479.4021307 97.84948297 -475.17005397 96.71309232 -470.93798828 95.57666016 C-469.21409033 95.11373127 -467.49019303 94.65079995 -465.76629639 94.18786621 C-464.90638847 93.95694778 -464.04648056 93.72602936 -463.16051483 93.4881134 C-460.53270793 92.78240065 -457.90493087 92.07657687 -455.27716064 91.37072754 C-436.03426686 86.20210089 -416.78855911 81.04397771 -397.54275513 75.88619995 C-391.44179709 74.25117342 -385.34089005 72.61595667 -379.23999023 70.98071289 C-361.43917312 66.2095558 -343.63824927 61.43879723 -325.83705044 56.66906452 C-320.45074079 55.22582544 -315.06445739 53.78248855 -309.67823792 52.33891296 C-307.54989715 51.76850041 -305.42155548 51.19809126 -303.29321289 50.62768555 C-302.24613694 50.34706363 -301.19906099 50.06644171 -300.12025547 49.77731609 C-293.87637199 48.1040801 -287.63217758 46.43201032 -281.3877306 44.76087856 C-255.07962267 37.72165593 -255.07962267 37.72165593 -228.80078125 30.57421875 C-180.37568741 17.30555435 -131.96440661 7.0790703 -81.94970703 2.19140625 C-80.12617276 2.01238661 -78.30329137 1.82675117 -76.48046875 1.640625 C-51.0779699 -0.86678969 -25.492725 -0.19706206 0 0 Z " fill="#37C9C9" transform="translate(920,72)"/>
<path d="M0 0 C1.40455948 0.00090637 1.40455948 0.00090637 2.8374939 0.00183105 C89.75594193 0.15308179 184.63808077 21.84254464 249.82421875 82.97265625 C251.83861532 84.86052874 253.89135875 86.65736286 256 88.4375 C265.99574484 97.15806752 275.00161628 106.76395257 283.1875 117.1875 C284.10397709 118.29398662 285.02341783 119.39802309 285.9453125 120.5 C300.0281677 137.46555605 311.46233193 156.42744512 321.1875 176.1875 C331.74591847 173.88237963 342.2048097 171.19293287 352.64138794 168.39328003 C354.06637829 168.01209015 355.49220087 167.63399519 356.91891479 167.25930786 C376.38679955 162.16897345 376.38679955 162.16897345 393.6875 152.25 C394.26443604 151.81816406 394.84137207 151.38632813 395.43579102 150.94140625 C411.63763635 138.6093773 420.33383621 121.38716737 425.37890625 101.99609375 C425.73431806 100.67599073 426.09111887 99.356261 426.44920349 98.03688049 C427.37891799 94.59779507 428.29110959 91.15431996 429.19897461 87.70941162 C430.10912156 84.26651969 431.03427088 80.82767473 431.95898438 77.38867188 C433.03628437 73.38002229 434.1128768 69.37120733 435.18228149 65.36044312 C438.05671014 54.59857478 441.07317598 43.88218301 444.1875 33.1875 C446.84850322 35.84850322 447.33606301 38.73721438 448.26293945 42.27661133 C448.46002502 43.00704651 448.6571106 43.73748169 448.86016846 44.49005127 C449.2881938 46.07979574 449.71308859 47.67038559 450.13524818 49.26169777 C450.80668091 51.7917621 451.48657558 54.31941487 452.16874695 56.84660339 C453.86410458 63.13421959 455.54503706 69.42567345 457.22595215 75.71716309 C458.64267074 81.01782227 460.06518802 86.31686099 461.49516869 91.61395836 C462.15928375 94.0831922 462.81508092 96.55453291 463.47053528 99.02607727 C469.64159391 122.05391984 478.88922814 142.10453319 500.10351562 155.02783203 C510.02929247 160.55119661 520.28263616 163.92095682 531.1875 166.8125 C532.72008142 167.22881224 534.25238224 167.64615866 535.78442383 168.06445312 C543.9651316 170.28909865 552.16334185 172.44743267 560.36276245 174.60189819 C563.48776187 175.42338978 566.61208237 176.24742472 569.73632812 177.07177734 C573.79608466 178.14286513 577.85885388 179.20134667 581.92382812 180.25244141 C583.7865423 180.74089083 585.64917659 181.22964507 587.51171875 181.71875 C588.37665451 181.93916962 589.24159027 182.15958923 590.13273621 182.38668823 C592.16816462 182.92586127 594.18118217 183.54846543 596.1875 184.1875 C596.5175 184.8475 596.8475 185.5075 597.1875 186.1875 C585.42727011 189.61523897 573.63498309 192.89327647 561.79296875 196.02734375 C558.60054584 196.87643798 555.4081891 197.72578007 552.21590996 198.57541466 C548.96165275 199.44065331 545.7062729 200.30121571 542.44848633 201.15307617 C513.86632006 208.54384948 513.86632006 208.54384948 489.1875 224.1875 C488.46175781 224.80109375 487.73601562 225.4146875 486.98828125 226.046875 C472.30185893 239.55030456 466.79547141 258.84884868 461.91033173 277.52254868 C461.27844622 279.93762252 460.63626723 282.34977075 459.99176025 284.76150513 C458.63135105 289.85947297 457.28387272 294.96081044 455.9375 300.0625 C454.36126675 306.03002665 452.77966991 311.99606083 451.18726349 317.95929337 C450.55561239 320.33433445 449.93235393 322.71147343 449.30950928 325.08883667 C448.92514911 326.53312256 448.54042422 327.97731146 448.15527344 329.42138672 C447.82251404 330.68328827 447.48975464 331.94518982 447.14691162 333.24533081 C446.1875 336.1875 446.1875 336.1875 444.1875 338.1875 C440.75126082 326.37710925 437.45029964 314.53628726 434.27734375 302.65234375 C433.77033432 300.75858505 433.77033432 300.75858505 433.25308228 298.8265686 C430.4509478 288.35919778 430.4509478 288.35919778 429.07104492 283.14672852 C428.37747364 280.52767622 427.67940563 277.90990093 426.97645569 275.29335022 C426.32423778 272.86528785 425.67812918 270.43557214 425.03953552 268.00389099 C418.9295074 245.38946863 407.1125927 226.17774611 386.40576172 214.24169922 C374.76466347 207.97863417 361.63813527 205.10793911 348.93670654 201.74766541 C342.63075007 200.06790433 336.407606 198.16019822 330.1875 196.1875 C330.423479 196.83895996 330.65945801 197.49041992 330.90258789 198.16162109 C345.48175028 238.66675218 354.42060212 280.04503539 355.1875 323.1875 C355.2008136 323.86274719 355.2141272 324.53799438 355.22784424 325.23370361 C356.14385409 372.59976446 351.52722252 419.46679508 339.86083984 465.47753906 C339.2066577 468.11039687 338.60383039 470.74928037 338.01953125 473.3984375 C334.64000188 488.59978426 330.01438006 503.39187823 325.1875 518.1875 C324.9679364 518.86292847 324.7483728 519.53835693 324.52215576 520.23425293 C315.07358602 549.25748415 304.64465761 578.33365698 290.89208984 605.6340332 C290.32675537 606.80131958 290.32675537 606.80131958 289.75 607.9921875 C289.42128906 608.64171387 289.09257813 609.29124023 288.75390625 609.96044922 C287.32361232 615.58421699 289.67257043 620.90027072 291.86328125 626.0234375 C292.14080231 626.68024506 292.41832336 627.33705261 292.70425415 628.01376343 C293.31038016 629.44633621 293.92015942 630.8773676 294.53317261 632.30700684 C296.22424028 636.25206633 297.8874775 640.20887614 299.5546875 644.1640625 C299.91608322 645.01943604 300.27747894 645.87480957 300.64982605 646.75610352 C305.57698719 658.44115237 310.34294447 670.19253258 315.125 681.9375 C316.028338 684.15416007 316.93173834 686.37079474 317.83520508 688.58740234 C319.95404554 693.78686189 322.07143198 698.98691155 324.1875 704.1875 C326.23651938 702.13848062 326.74113799 701.08493956 327.68945312 698.42358398 C328.11373344 697.2465239 328.11373344 697.2465239 328.54658508 696.04568481 C328.85089951 695.18369476 329.15521393 694.32170471 329.46875 693.43359375 C329.79381027 692.52777557 330.11887054 691.6219574 330.45378113 690.68869019 C331.16221871 688.71296924 331.8681362 686.73634331 332.5718689 684.75894165 C334.49061777 679.36894581 336.42859512 673.98585356 338.36328125 668.6015625 C338.76424515 667.48399063 339.16520905 666.36641876 339.57832336 665.21498108 C343.62086486 653.95584187 347.74067119 642.72569482 351.875 631.5 C352.60407025 629.51890462 353.33307352 627.53778459 354.06201172 625.55664062 C355.19692418 622.47214498 356.33187365 619.38766307 357.46710205 616.30328369 C362.509932 602.5993602 367.53408866 588.88858418 372.55978775 575.17837143 C373.799779 571.79572075 375.03991302 568.41312242 376.2800293 565.03051758 C378.5826917 558.74957483 380.88516663 552.46856337 383.1875 546.1875 C382.3386599 546.10756554 382.3386599 546.10756554 381.47267151 546.02601624 C376.52643499 545.5243263 371.80152419 544.751497 366.96484375 543.55859375 C365.68544922 543.24599609 364.40605469 542.93339844 363.08789062 542.61132812 C361.76689622 542.28267611 360.44593304 541.95389858 359.125 541.625 C357.76900769 541.29179849 356.41288867 540.95911218 355.05664062 540.62695312 C351.76568268 539.81885313 348.47641681 539.00386756 345.1875 538.1875 C345.1875 533.8975 345.1875 529.6075 345.1875 525.1875 C375.8775 525.1875 406.5675 525.1875 438.1875 525.1875 C438.1875 529.1475 438.1875 533.1075 438.1875 537.1875 C431.86786866 539.68090905 425.49249408 541.60041938 418.9375 543.375 C417.9578125 543.64763672 416.978125 543.92027344 415.96875 544.20117188 C415.02515625 544.45833984 414.0815625 544.71550781 413.109375 544.98046875 C412.25956055 545.2127417 411.40974609 545.44501465 410.53417969 545.68432617 C408.1875 546.1875 408.1875 546.1875 404.1875 546.1875 C403.97577148 546.97447266 403.97577148 546.97447266 403.75976562 547.77734375 C401.53556296 555.61749508 398.5945287 563.16127404 395.63876343 570.74584961 C393.95527851 575.06692564 392.28514944 579.39316913 390.61328125 583.71875 C390.25659866 584.64071167 389.89991608 585.56267334 389.53242493 586.51257324 C385.26539959 597.55267064 381.07187619 608.62059445 376.875 619.6875 C370.30608069 637.00085878 363.70638433 654.30205271 357.07357788 671.59103394 C352.85192211 682.5961122 348.64345524 693.60592058 344.46875 704.62890625 C336.93506604 724.52001995 329.3808598 744.40224846 321.65625 764.22018433 C320.90144997 766.15724808 320.1479716 768.09482751 319.39599609 770.0329895 C312.75057238 787.14741542 305.58927819 803.94181781 297.17431641 820.26708984 C296.20254783 822.15821593 295.24758044 824.05720073 294.29296875 825.95703125 C281.12685128 851.79650712 262.31443589 874.20630199 234.1875 884.125 C222.19996978 887.60093813 210.11723903 887.38559713 199 881.5 C191.19128869 875.07950403 187.27421514 869.01184902 185.875 858.9375 C185.31390101 849.11826761 190.06077435 839.62126046 196.1875 832.1875 C197.1775 831.5275 198.1675 830.8675 199.1875 830.1875 C199.70957031 830.70699219 200.23164062 831.22648438 200.76953125 831.76171875 C209.60515584 840.13312488 219.08651837 844.58015946 231.31640625 844.3984375 C246.13678369 843.30959344 258.14280677 837.01097483 268.1875 826.1875 C280.98929257 810.80454105 289.30483545 792.40656292 297.1875 774.1875 C297.49800293 773.47770996 297.80850586 772.76791992 298.12841797 772.03662109 C301.45928181 764.34627287 302.94627077 760.02718934 299.99853516 751.91577148 C299.49628418 750.72540283 298.9940332 749.53503418 298.4765625 748.30859375 C298.19653381 747.63993286 297.91650513 746.97127197 297.62799072 746.28234863 C296.6956726 744.0605762 295.75417697 741.84282017 294.8125 739.625 C294.15066912 738.05369216 293.4893861 736.48215347 292.82861328 734.91040039 C291.39664591 731.5076849 289.96051374 728.10676603 288.52148438 724.70703125 C286.48182067 719.88703175 284.45125478 715.06325107 282.42312622 710.23838806 C280.30501718 705.19970781 278.18385048 700.16231623 276.0625 695.125 C275.65590149 694.15891815 275.24930298 693.1928363 274.8303833 692.19747925 C268.69818502 677.60934215 268.69818502 677.60934215 262.1875 663.1875 C261.88682617 663.74920898 261.58615234 664.31091797 261.27636719 664.88964844 C253.94270631 678.55365 246.32749719 691.98765036 238.1875 705.1875 C237.7244043 705.93999023 237.26130859 706.69248047 236.78417969 707.46777344 C216.08876928 740.96837787 193.27703071 773.05415652 169.1875 804.1875 C168.70684082 804.80995605 168.22618164 805.43241211 167.73095703 806.07373047 C161.93277306 813.56913916 155.9683065 820.88956027 149.8125 828.09375 C147.34834036 830.9830132 144.95089 833.92268458 142.5625 836.875 C138.99224131 841.26476647 135.25867495 845.46577693 131.4453125 849.64453125 C129.06517687 852.32527224 126.81018159 855.08254134 124.5625 857.875 C121.53923585 861.61209041 118.43287593 865.0774684 114.96948242 868.40597534 C113.19758791 870.17741468 111.55964206 872.01170048 109.92578125 873.91064453 C98.16700785 887.43516795 85.43900937 900.09791424 72.75732422 912.74804688 C70.15864686 915.34129284 67.56545419 917.93993948 64.97265625 920.5390625 C63.29459188 922.21646707 61.61621787 923.89356194 59.9375 925.5703125 C58.79510864 926.7157402 58.79510864 926.7157402 57.62963867 927.88430786 C53.51896506 931.97719643 49.31864092 935.89913835 44.92456055 939.68624878 C42.88750734 941.44676808 40.91955181 943.26960681 38.96875 945.125 C37.91107422 946.12660156 37.91107422 946.12660156 36.83203125 947.1484375 C36.12433594 947.82132813 35.41664062 948.49421875 34.6875 949.1875 C29.29268611 954.31699517 23.82903271 959.33007924 18.1875 964.1875 C17.62192383 964.67524902 17.05634766 965.16299805 16.47363281 965.66552734 C14.83902762 967.07156073 13.2013912 968.47396558 11.5625 969.875 C10.34629156 970.91529139 9.13014764 971.95565823 7.9140625 972.99609375 C6.99222168 973.7847583 6.99222168 973.7847583 6.05175781 974.58935547 C4.2058072 976.17180606 2.3640159 977.75896204 0.5234375 979.34765625 C-5.28988653 984.36077202 -11.12349542 989.32291577 -17.1484375 994.08203125 C-19.16236049 995.67368006 -21.16632839 997.27497421 -23.1640625 998.88671875 C-38.71900818 1011.42490979 -54.66615704 1023.42309924 -70.8125 1035.1875 C-71.43121979 1035.64133057 -72.04993958 1036.09516113 -72.68740845 1036.56274414 C-84.12011609 1044.94438091 -95.75821303 1052.93449251 -107.625 1060.6875 C-108.45322266 1061.23031616 -109.28144531 1061.77313232 -110.13476562 1062.33239746 C-122.57335224 1070.48414824 -135.05351803 1078.54347739 -147.8125 1086.1875 C-148.70243652 1086.7222998 -149.59237305 1087.25709961 -150.50927734 1087.80810547 C-162.80900848 1095.18367712 -175.21978712 1102.32517894 -187.8125 1109.1875 C-189.22644043 1109.962146 -189.22644043 1109.962146 -190.66894531 1110.75244141 C-215.17256439 1124.16251847 -239.96687426 1136.58710797 -265.55615234 1147.77099609 C-267.01926246 1148.41100314 -268.48231727 1149.05113663 -269.9453125 1149.69140625 C-270.65029373 1149.99947708 -271.35527496 1150.30754791 -272.08161926 1150.62495422 C-275.7200362 1152.22592924 -279.28376051 1153.90054655 -282.80859375 1155.7421875 C-289.86082261 1159.34312075 -297.34361416 1161.97905281 -304.75 1164.75 C-305.9614267 1165.20495346 -305.9614267 1165.20495346 -307.19732666 1165.6690979 C-365.99048698 1187.72066872 -426.21405395 1204.60672985 -488.625 1212.5 C-489.78273926 1212.64727539 -490.94047852 1212.79455078 -492.13330078 1212.94628906 C-496.02229065 1213.40814379 -499.91420674 1213.8144023 -503.8125 1214.1875 C-504.70473267 1214.27363556 -505.59696533 1214.35977112 -506.51623535 1214.44851685 C-524.49893167 1216.13214019 -542.38321606 1216.5503562 -560.4375 1216.5 C-561.81266265 1216.49807534 -563.18782541 1216.49623495 -564.56298828 1216.49447632 C-584.46061309 1216.4575006 -604.09321987 1216.07474662 -623.8125 1213.1875 C-625.05612305 1213.01057617 -626.29974609 1212.83365234 -627.58105469 1212.65136719 C-664.14518042 1207.32274177 -698.91571514 1197.93211047 -732.8125 1183.1875 C-734.13652832 1182.61346436 -734.13652832 1182.61346436 -735.48730469 1182.02783203 C-761.40160318 1170.64620666 -785.66806049 1154.98255735 -806.8125 1136.1875 C-807.50859375 1135.589375 -808.2046875 1134.99125 -808.921875 1134.375 C-813.27771542 1130.63113716 -817.51360681 1126.7528144 -821.75 1122.875 C-822.33072266 1122.34656494 -822.91144531 1121.81812988 -823.50976562 1121.27368164 C-827.69615743 1117.42018514 -827.69615743 1117.42018514 -828.8125 1115.1875 C-837.87105015 1116.61597744 -846.67786165 1118.84568089 -855.5 1121.3125 C-856.20738312 1121.51002869 -856.91476624 1121.70755737 -857.64358521 1121.91107178 C-872.14560306 1126.001474 -885.48329073 1130.87022011 -896.8125 1141.1875 C-897.56917969 1141.86425781 -898.32585937 1142.54101562 -899.10546875 1143.23828125 C-913.49049701 1156.80406167 -919.30976249 1174.60899574 -924.2109375 1193.17578125 C-924.6945938 1194.9735142 -925.17928238 1196.77096971 -925.66494751 1198.56816101 C-926.92784508 1203.25229151 -928.17687581 1207.94000642 -929.42285156 1212.62866211 C-930.70177549 1217.4311603 -931.99406047 1222.23005955 -933.28515625 1227.02929688 C-935.80720746 1236.41192996 -938.31459364 1245.79841235 -940.8125 1255.1875 C-942.8125 1254.1875 -942.8125 1254.1875 -943.81660461 1251.18681335 C-944.18201804 1249.8281639 -944.53838243 1248.46706322 -944.88793945 1247.10424805 C-945.08502502 1246.36259903 -945.2821106 1245.62095001 -945.48516846 1244.85682678 C-945.91375929 1243.23991546 -946.3386207 1241.62201216 -946.76024818 1240.0032711 C-947.43046514 1237.43124384 -948.11072883 1234.86206654 -948.79374695 1232.29341125 C-950.49095906 1225.90229602 -952.17113502 1219.50672822 -953.85095215 1213.11102295 C-955.26631829 1207.72437629 -956.68867368 1202.33966866 -958.12016869 1196.95728493 C-958.78547859 1194.44451447 -959.44069435 1191.92925746 -960.09553528 1189.41374207 C-966.51253839 1165.07685622 -976.95415466 1145.64088858 -998.8125 1132.1875 C-999.58722656 1131.70667969 -1000.36195313 1131.22585938 -1001.16015625 1130.73046875 C-1006.21258824 1127.92356209 -1011.59557987 1126.23271377 -1017.11328125 1124.58984375 C-1017.96606659 1124.33503235 -1018.81885193 1124.08022095 -1019.69747925 1123.81768799 C-1027.92058094 1121.39426108 -1036.19466487 1119.16475788 -1044.4765625 1116.953125 C-1045.50593965 1116.6781421 -1045.50593965 1116.6781421 -1046.55611229 1116.39760399 C-1052.98341961 1114.68187511 -1059.41245032 1112.97267555 -1065.84375 1111.27197266 C-1069.40207073 1110.33065567 -1072.95858978 1109.38278061 -1076.51404953 1108.43071747 C-1077.85701562 1108.07253415 -1079.20066424 1107.71689958 -1080.54500198 1107.36389923 C-1082.40484657 1106.87541254 -1084.26230616 1106.37787209 -1086.11962891 1105.87988281 C-1087.17405182 1105.60041809 -1088.22847473 1105.32095337 -1089.31484985 1105.03302002 C-1091.8125 1104.1875 -1091.8125 1104.1875 -1093.8125 1102.1875 C-1084.67371979 1099.29881405 -1075.48452725 1096.70152342 -1066.21875 1094.25390625 C-1064.85588577 1093.89087719 -1063.49313589 1093.52741856 -1062.13049316 1093.16355896 C-1056.42042895 1091.63917413 -1050.70932443 1090.11878739 -1044.99560547 1088.6081543 C-1041.47112808 1087.67602063 -1037.94860939 1086.73676789 -1034.4271698 1085.79322624 C-1032.47189957 1085.27142606 -1030.51460489 1084.75723017 -1028.55725098 1084.24330139 C-1006.30846254 1078.27072098 -985.119442 1068.92530105 -972.72998047 1048.39355469 C-971.62839957 1046.44994071 -970.58382635 1044.48689973 -969.5625 1042.5 C-969.25739502 1041.91404053 -968.95229004 1041.32808105 -968.63793945 1040.72436523 C-966.47251549 1036.26421206 -964.93306832 1031.63364157 -963.46459961 1026.90673828 C-963.24614474 1026.20479812 -963.02768988 1025.50285795 -962.80261517 1024.77964687 C-960.69743217 1017.93781032 -958.82531341 1011.04213763 -957.01145363 1004.11825752 C-956.43908986 1001.93548479 -955.86131196 999.75420527 -955.28215027 997.57322693 C-953.64015711 991.387339 -952.00540264 985.19956653 -950.37915039 979.00952148 C-949.3752082 975.18970095 -948.36351944 971.3720039 -947.346838 967.55555534 C-946.963069 966.1086115 -946.58232392 964.66086212 -946.20466042 963.2123127 C-945.68124485 961.20536459 -945.14807913 959.20125339 -944.61254883 957.19750977 C-944.1621801 955.48785789 -944.1621801 955.48785789 -943.70271301 953.7436676 C-942.8125 951.1875 -942.8125 951.1875 -940.8125 950.1875 C-938.80380317 957.54409617 -936.79584017 964.90089239 -934.78833008 972.2578125 C-934.10880189 974.74776484 -933.42912045 977.23767536 -932.74926758 979.72753906 C-932.08890402 982.14610225 -931.42880427 984.56473748 -930.76896667 986.98344421 C-930.10616718 989.41223357 -929.4425173 991.84079102 -928.7780304 994.26911926 C-927.12105299 1000.33552766 -925.48672406 1006.40650417 -923.8972168 1012.4909668 C-923.58945816 1013.66059967 -923.28169952 1014.83023254 -922.96461487 1016.03530884 C-922.38809352 1018.23108507 -921.81766744 1020.42847517 -921.25474548 1022.6277771 C-918.91430924 1031.51118015 -915.47042545 1039.29597341 -910.8125 1047.1875 C-910.33296875 1048.03828125 -909.8534375 1048.8890625 -909.359375 1049.765625 C-899.16100635 1066.52846083 -881.33658707 1077.21088656 -862.640625 1082 C-860.36652399 1082.46252902 -858.10645869 1082.84515409 -855.8125 1083.1875 C-856.84697266 1081.62515625 -856.84697266 1081.62515625 -857.90234375 1080.03125 C-882.23213374 1043.02924077 -899.24521841 1002.71649337 -907.8125 959.1875 C-908.00537598 958.21216309 -908.19825195 957.23682617 -908.39697266 956.23193359 C-909.74290132 949.24413484 -910.84703212 942.23746054 -911.8125 935.1875 C-911.96348145 934.09598633 -912.11446289 933.00447266 -912.27001953 931.87988281 C-917.0977324 895.24759334 -915.88975717 857.83148018 -911.8125 821.1875 C-911.66633306 819.83497939 -911.52033574 818.48244044 -911.37451172 817.12988281 C-909.25974296 797.89435568 -905.61844898 779.21724488 -901.8125 760.1875 C-926.2325 759.8575 -950.6525 759.5275 -975.8125 759.1875 C-975.8125 755.2275 -975.8125 751.2675 -975.8125 747.1875 C-968.8710483 745.95736932 -961.93547275 744.90155625 -954.9375 744.0625 C-953.86834351 743.93125732 -953.86834351 743.93125732 -952.77758789 743.79736328 C-948.72170643 743.32467643 -944.92296414 743.1875 -940.8125 743.1875 C-940.8125 647.8175 -940.8125 552.4475 -940.8125 454.1875 C-944.7725 454.1875 -948.7325 454.1875 -952.8125 454.1875 C-956.04172125 453.92642481 -959.22548026 453.63337337 -962.4375 453.25 C-964.0715976 453.06625516 -965.70571205 452.88266005 -967.33984375 452.69921875 C-968.10796387 452.61075684 -968.87608398 452.52229492 -969.66748047 452.43115234 C-972.44254224 452.11593363 -975.22047876 451.83531218 -978 451.5625 C-979.258125 451.43875 -980.51625 451.315 -981.8125 451.1875 C-981.8125 446.8975 -981.8125 442.6075 -981.8125 438.1875 C-962.48723951 438.14098356 -943.1619951 438.10539973 -923.83668995 438.08387566 C-914.86140333 438.07361114 -905.88615238 438.05964442 -896.91088867 438.03662109 C-889.07803705 438.01653805 -881.24521128 438.00374862 -873.41233462 437.99932301 C-869.27399565 437.99674057 -865.13573057 437.99077454 -860.99741554 437.97603989 C-788.53983956 437.72846736 -788.53983956 437.72846736 -760.8125 457.1875 C-760.52906738 456.59702881 -760.24563477 456.00655762 -759.95361328 455.39819336 C-758.17960688 451.96138807 -755.92223752 448.9002249 -753.6875 445.75 C-753.16615479 445.01354248 -752.64480957 444.27708496 -752.10766602 443.51831055 C-745.244189 433.89823214 -738.03943761 424.5358253 -730.8125 415.1875 C-730.29800293 414.52089355 -729.78350586 413.85428711 -729.25341797 413.16748047 C-718.34496064 399.06373063 -706.926173 385.37557342 -695.27148438 371.88476562 C-693.80214452 370.17545326 -692.34486128 368.45654801 -690.890625 366.734375 C-684.49376955 359.17541885 -677.86842396 351.87893104 -671.078125 344.671875 C-668.29729456 341.71744358 -665.5740666 338.71706456 -662.875 335.6875 C-659.87809379 332.33052188 -656.78404869 329.1269827 -653.57080078 325.97827148 C-651.92883761 324.30598603 -650.42053377 322.5837851 -648.91015625 320.79296875 C-644.07038058 315.23003758 -638.83629477 310.06177013 -633.61547852 304.86010742 C-631.878564 303.128553 -630.14706111 301.39171641 -628.41601562 299.65429688 C-623.20936971 294.44485234 -617.99221749 289.32379709 -612.38452148 284.54125977 C-610.42331622 282.85235105 -608.60967048 281.04885514 -606.8125 279.1875 C-603.72666001 276.05995947 -600.531257 273.15367743 -597.19921875 270.29296875 C-594.6923382 268.08149802 -592.25488074 265.80756131 -589.81811523 263.51953125 C-584.19287526 258.2379846 -578.4834246 253.18968998 -572.45703125 248.36328125 C-569.65410752 246.057183 -566.98246725 243.64598469 -564.3125 241.1875 C-558.98618912 236.29243872 -553.44309305 231.7257098 -547.8125 227.1875 C-546.04098705 225.7299923 -544.27015983 224.27165078 -542.5 222.8125 C-536.01329473 217.50687336 -529.42354979 212.33668818 -522.8125 207.1875 C-521.78511719 206.38570312 -520.75773438 205.58390625 -519.69921875 204.7578125 C-510.97047967 197.99220788 -502.09009556 191.43727369 -493.17529297 184.91943359 C-491.02885216 183.34608671 -488.89045052 181.76252216 -486.75390625 180.17578125 C-457.7197036 158.7554306 -427.00286111 139.28371389 -395.8125 121.1875 C-394.96929199 120.69572266 -394.12608398 120.20394531 -393.25732422 119.69726562 C-337.75892274 87.36726157 -279.61952889 60.26694913 -218.80712891 39.55322266 C-216.21149011 38.66859731 -213.62007226 37.77330637 -211.03271484 36.86474609 C-161.4791321 19.47394551 -109.42091545 8.20691598 -57.1875 2.875 C-55.99480499 2.75289658 -55.99480499 2.75289658 -54.77801514 2.62832642 C-36.51903041 0.78846695 -18.35005698 -0.02210382 0 0 Z M-316.8125 83.1875 C-317.79331543 83.63996094 -318.77413086 84.09242187 -319.78466797 84.55859375 C-330.75508335 89.62217349 -341.49510185 95.04525169 -352.14111328 100.75830078 C-355.0351106 102.30659728 -357.93726041 103.83895847 -360.83984375 105.37109375 C-375.69054321 113.24570834 -390.2173929 121.57823783 -404.61083984 130.25878906 C-407.62673716 132.07559468 -410.65021919 133.87903895 -413.67578125 135.6796875 C-428.72776704 144.68469484 -443.29773403 154.34966093 -457.8125 164.1875 C-458.62364258 164.73567383 -459.43478516 165.28384766 -460.27050781 165.84863281 C-475.08272038 175.87198456 -489.5761753 186.36289176 -503.8125 197.1875 C-504.45010254 197.67186523 -505.08770508 198.15623047 -505.74462891 198.65527344 C-518.96189838 208.70349 -532.10682965 218.78991406 -544.734375 229.57421875 C-547.5395732 231.96632269 -550.38713157 234.30205851 -553.25 236.625 C-563.15368808 244.70053635 -572.77235237 253.06569547 -582.15234375 261.7421875 C-584.32471246 263.73910793 -586.51789163 265.69578734 -588.75 267.625 C-593.93592556 272.13080417 -598.96022931 276.81158696 -603.98779297 281.4921875 C-605.79031147 283.16688491 -607.60006787 284.83349218 -609.41015625 286.5 C-619.13804784 295.50878156 -628.5546759 304.82237327 -637.9375 314.1875 C-638.57228271 314.81969452 -639.20706543 315.45188904 -639.86108398 316.10324097 C-648.9172879 325.08959912 -648.9172879 325.08959912 -657.42724609 334.58789062 C-658.97650366 336.37688174 -660.62322382 338.03083249 -662.3125 339.6875 C-665.30484375 342.63350215 -668.06574172 345.71733007 -670.8046875 348.8984375 C-672.75612787 351.12323139 -674.75433648 353.29920501 -676.76708984 355.46850586 C-681.59554485 360.67457294 -686.1775513 366.0056598 -690.6328125 371.5390625 C-692.79007399 374.16025119 -695.02561 376.67904281 -697.3125 379.1875 C-702.01718015 384.36264816 -706.41686343 389.7495284 -710.8125 395.1875 C-711.82332767 396.41870087 -712.83510049 397.64912618 -713.84765625 398.87890625 C-720.85725393 407.41186956 -727.59634733 416.10327587 -734.16894531 424.97607422 C-736.62925384 428.2864537 -739.11086392 431.58072959 -741.59008789 434.87695312 C-747.39736483 442.59986233 -753.17723033 450.33773138 -758.8125 458.1875 C-757.62355587 460.80210113 -756.97883983 462.06393327 -754.625 463.8125 C-747.45241517 469.86934941 -743.1077168 478.53302951 -739.8125 487.1875 C-739.49152344 488.01894531 -739.17054688 488.85039063 -738.83984375 489.70703125 C-732.60047398 509.52791291 -736.37813127 534.15556908 -745.4140625 552.42578125 C-754.88650359 569.445898 -769.29926358 579.95923311 -787.9375 585.4375 C-793.51865839 586.92580891 -799.12291539 588.19116721 -804.8125 589.1875 C-801.96721473 591.08435685 -800.29838972 591.70626026 -797.05078125 592.484375 C-796.10428711 592.71769531 -795.15779297 592.95101562 -794.18261719 593.19140625 C-792.66909668 593.56072266 -792.66909668 593.56072266 -791.125 593.9375 C-768.7497761 599.60282018 -744.03890706 608.13826443 -731.19921875 628.78125 C-719.8971036 648.74925493 -716.91746951 673.18549264 -722.3125 695.625 C-728.07629572 712.73564095 -738.13789731 726.86266554 -753.8125 736.1875 C-755.42511719 737.15429688 -755.42511719 737.15429688 -757.0703125 738.140625 C-789.29313934 756.70097326 -826.1359613 758.61043731 -862.37756348 758.85705566 C-866.38788457 758.88738842 -870.39802202 758.93372951 -874.40820312 758.97851562 C-882.20954215 759.06338662 -890.01089646 759.13123228 -897.8125 759.1875 C-900.80278745 772.42849502 -903.57770623 785.62319118 -905.5 799.0625 C-905.70966401 800.49304485 -905.91962939 801.92354556 -906.12988281 803.35400391 C-906.70544874 807.29652078 -907.26233729 811.24135733 -907.8125 815.1875 C-908.00803467 816.58548828 -908.00803467 816.58548828 -908.20751953 818.01171875 C-910.73633283 836.49353754 -911.05126675 855.12070357 -911.0625 873.75 C-911.06317474 874.77019226 -911.06384949 875.79038452 -911.06454468 876.8414917 C-910.99349626 945.08648623 -896.42053816 1017.34421881 -856.32780457 1073.9690094 C-855.24621359 1075.55251906 -854.22640269 1077.17895399 -853.25054932 1078.82972717 C-848.00803908 1087.10178064 -843.14659502 1089.39609974 -833.78125 1091.54296875 C-832.54959106 1091.860345 -831.31793213 1092.17772125 -830.0489502 1092.50471497 C-826.80640198 1093.33234697 -823.55931558 1094.1228936 -820.30371094 1094.89624023 C-816.97074863 1095.69760599 -813.65014747 1096.54722159 -810.328125 1097.39257812 C-803.83328743 1099.03506096 -797.32812515 1100.62965145 -790.8125 1102.1875 C-794.38739047 1104.05472944 -797.85593045 1105.10568935 -801.765625 1106.1328125 C-802.42584656 1106.30755096 -803.08606812 1106.48228943 -803.76629639 1106.662323 C-805.86397082 1107.21650125 -807.96318313 1107.76458022 -810.0625 1108.3125 C-811.48968932 1108.68839991 -812.91677392 1109.06469766 -814.34375 1109.44140625 C-817.83213245 1110.36138111 -821.32191978 1111.27589475 -824.8125 1112.1875 C-810.85071474 1128.65612523 -793.8714666 1142.41071408 -775.8125 1154.1875 C-775.0891748 1154.66268066 -774.36584961 1155.13786133 -773.62060547 1155.62744141 C-710.81038274 1196.58389139 -635.82110661 1212.38868158 -561.625 1212.4375 C-560.55446381 1212.43850708 -559.48392761 1212.43951416 -558.38095093 1212.44055176 C-538.39339554 1212.42793839 -518.67298145 1211.39235615 -498.8125 1209.1875 C-496.89727539 1208.97867187 -496.89727539 1208.97867187 -494.94335938 1208.765625 C-462.15098855 1205.06685106 -429.71148182 1198.57470275 -397.8125 1190.1875 C-397.15888489 1190.0162561 -396.50526978 1189.84501221 -395.83184814 1189.6685791 C-362.47072517 1180.90294997 -329.96768066 1169.62298834 -297.8125 1157.1875 C-296.73033203 1156.77322754 -295.64816406 1156.35895508 -294.53320312 1155.93212891 C-255.51924154 1140.96208244 -217.30574508 1122.61400183 -181.20898438 1101.56933594 C-178.16801283 1099.8158825 -175.09195458 1098.13187597 -172.01049805 1096.45092773 C-145.00299056 1081.6947432 -119.03262421 1064.79985418 -93.8125 1047.1875 C-93.10222656 1046.69330566 -92.39195312 1046.19911133 -91.66015625 1045.68994141 C-74.37244058 1033.64801653 -57.47249015 1021.08179025 -40.8125 1008.1875 C-39.91072021 1007.49043945 -39.91072021 1007.49043945 -38.99072266 1006.77929688 C-25.16968101 996.07366974 -11.72002211 984.90176832 1.57958984 973.55712891 C3.2648112 972.12164579 4.95456809 970.6916151 6.64453125 969.26171875 C13.08479633 963.79598502 19.40831807 958.23378569 25.57421875 952.45922852 C28.30806633 949.9016564 31.07807848 947.40058005 33.90722656 944.94848633 C48.01619204 932.62087256 61.23150225 919.30591828 74.45703125 906.04833984 C76.85917508 903.64042584 79.26588595 901.23713385 81.67387581 898.83506775 C84.01679784 896.49665068 86.35587983 894.15440798 88.6953125 891.8125 C89.54642609 890.96341064 90.39753967 890.11432129 91.27444458 889.23950195 C95.5881842 884.90888124 99.74871427 880.50797128 103.7348938 875.87368774 C105.38273272 873.96087352 107.09030886 872.11674809 108.8359375 870.29296875 C109.4441333 869.65319092 110.0523291 869.01341309 110.67895508 868.35424805 C111.3005249 867.70109619 111.92209473 867.04794434 112.5625 866.375 C117.64485538 860.998485 122.47144154 855.5487441 127.08203125 849.76171875 C129.35950846 846.97719652 131.75062008 844.33336197 134.1875 841.6875 C139.08124231 836.35775607 143.64857316 830.81979749 148.1875 825.1875 C149.18518805 823.96922437 150.18394911 822.75182693 151.18359375 821.53515625 C158.45255603 812.67251162 165.49158625 803.65939919 172.41162109 794.52246094 C174.32279842 792.00960694 176.2481426 789.50805827 178.17578125 787.0078125 C178.86309326 786.11344482 179.55040527 785.21907715 180.25854492 784.29760742 C181.56701573 782.59502452 182.87809896 780.89444385 184.19262695 779.1965332 C204.99019234 752.05504786 223.92111486 722.67609843 241.1875 693.1875 C241.7954541 692.15512207 242.4034082 691.12274414 243.02978516 690.05908203 C248.40008738 680.94375737 248.40008738 680.94375737 253.68408203 671.77832031 C254.66419905 670.08929761 255.67964574 668.42014425 256.73388672 666.77636719 C257.20197754 666.02258789 257.67006836 665.26880859 258.15234375 664.4921875 C258.56991943 663.85007324 258.98749512 663.20795898 259.41772461 662.54638672 C261.33905789 656.65868542 258.85746678 650.72668524 256.4765625 645.33203125 C256.19689636 644.68934799 255.91723022 644.04666473 255.62908936 643.38450623 C255.01999057 641.98772076 254.40621783 640.59296602 253.78826904 639.20007324 C252.43390382 636.14637656 251.10312492 633.0825666 249.77053833 630.01931763 C249.05039022 628.36442028 248.32906992 626.71003261 247.60665894 625.05612183 C243.58706761 615.84481841 239.67987068 606.58661229 235.77868652 597.32467651 C234.56627844 594.44646985 233.35217734 591.56898248 232.13769531 588.69165039 C228.45223338 579.95674566 224.7774031 571.21753219 221.125 562.46875 C220.81607819 561.72937195 220.50715637 560.9899939 220.18887329 560.22821045 C218.7663139 556.82310368 217.34616454 553.41703923 215.93115234 550.00878906 C215.203396 548.2642041 215.203396 548.2642041 214.4609375 546.484375 C214.04247559 545.47729492 213.62401367 544.47021484 213.19287109 543.43261719 C212.38107636 541.26228869 212.38107636 541.26228869 211.1875 540.1875 C208.477437 539.78128706 205.78402994 539.43219611 203.0625 539.125 C202.31484375 539.03412109 201.5671875 538.94324219 200.796875 538.84960938 C196.22679684 538.3201491 191.78743222 538.09598941 187.1875 538.1875 C187.1875 533.8975 187.1875 529.6075 187.1875 525.1875 C220.8475 525.1875 254.5075 525.1875 289.1875 525.1875 C289.1875 529.4775 289.1875 533.7675 289.1875 538.1875 C287.805625 538.14625 286.42375 538.105 285 538.0625 C275.69641297 538.03801688 266.42990807 539.21962772 257.1875 540.1875 C257.87969313 544.66137851 259.4628943 548.66095491 261.1796875 552.8203125 C261.63288109 553.93336006 261.63288109 553.93336006 262.0952301 555.06889343 C263.08017242 557.48514605 264.07128655 559.89881405 265.0625 562.3125 C265.74138125 563.9746843 266.41984533 565.63703905 267.09790039 567.29956055 C268.46644706 570.65329077 269.83737314 574.00603185 271.21044922 577.35791016 C273.02236414 581.78184204 274.82738993 586.20854349 276.62890625 590.63671875 C276.88812866 591.27383789 277.14735107 591.91095703 277.41442871 592.56738281 C277.66519165 593.18371582 277.91595459 593.80004883 278.17431641 594.43505859 C280.17586246 599.35370138 282.18132182 604.27074506 284.1875 609.1875 C287.28568132 606.57614287 288.54277645 603.58798539 290.15625 599.9140625 C290.43276398 599.28746231 290.70927795 598.66086212 290.99417114 598.01527405 C291.9007376 595.95139509 292.79512214 593.88255024 293.6875 591.8125 C293.99774109 591.09744293 294.30798218 590.38238586 294.62762451 589.6456604 C308.37182964 557.92348508 320.615615 525.00914146 329.53857422 491.57714844 C330.20642385 489.11781354 330.91342397 486.67243607 331.62890625 484.2265625 C341.22602117 451.00311846 347.84415349 415.67683145 350.1875 381.1875 C350.27362549 380.02275146 350.35975098 378.85800293 350.44848633 377.65795898 C351.24914596 366.16755548 351.37368928 354.69383661 351.37280273 343.1784668 C351.37498491 340.02183442 351.39320775 336.86555523 351.41210938 333.70898438 C351.46637829 314.57080018 349.84535933 295.78256849 346.9375 276.875 C346.83112213 276.18026581 346.72474426 275.48553162 346.61514282 274.76974487 C343.47032173 254.41884916 338.53836431 234.61002046 332.04296875 215.0625 C330.67326532 210.92624721 329.64605156 206.96640343 329.1496582 202.63671875 C328.12445217 199.36345665 326.50975994 196.67890511 324.1875 194.1875 C321.02688608 192.49257791 321.02688608 192.49257791 317.3984375 191.546875 C316.75800003 191.35398895 316.11756256 191.16110291 315.4577179 190.96237183 C309.66659156 189.26697438 303.78290145 187.98109179 297.86791992 186.79736328 C295.1875 186.1875 295.1875 186.1875 294.1875 185.1875 C301.4475 183.2075 308.7075 181.2275 316.1875 179.1875 C315.35309664 175.01548318 314.69111824 172.89033473 312.703125 169.3359375 C312.18685547 168.41176025 311.67058594 167.48758301 311.13867188 166.53540039 C310.57728516 165.55434326 310.01589844 164.57328613 309.4375 163.5625 C308.56448242 162.0319397 308.56448242 162.0319397 307.67382812 160.47045898 C295.81450336 139.95759302 281.63693087 121.24338317 265.1875 104.1875 C264.49350098 103.46626953 263.79950195 102.74503906 263.08447266 102.00195312 C253.85577728 92.46375288 244.62306046 83.2668687 233.88671875 75.43359375 C232.11494985 74.13429655 230.3694187 72.80449794 228.625 71.46875 C153.98606023 14.81209617 55.96515275 -0.49492958 -316.8125 83.1875 Z " fill="#000101" transform="translate(1116.8125,39.8125)"/>
<path d="M0 0 C6.54357133 3.18816175 9.73101668 7.53790161 12.4453125 14.19140625 C15.37736673 22.98756895 13.46853343 32.08229741 9.4453125 40.19140625 C1.34609958 53.95268292 -13.01011171 61.99060046 -28.02490234 66.16699219 C-30.8561543 66.89847273 -33.69791716 67.56751388 -36.5546875 68.19140625 C-35.58789062 68.67609375 -34.62109375 69.16078125 -33.625 69.66015625 C-25.55493026 73.78298832 -18.33048261 78.09077934 -11.5546875 84.19140625 C-10.87148437 84.78179688 -10.18828125 85.3721875 -9.484375 85.98046875 C4.91019501 99.24605287 12.90863775 119.14118306 13.73046875 138.4765625 C13.98633894 149.07141615 13.56088659 158.99956873 10.4453125 169.19140625 C10.11660156 170.27421875 9.78789063 171.35703125 9.44921875 172.47265625 C2.07348377 193.91077869 -14.66936618 207.71453534 -34.46630859 217.44213867 C-50.61797872 225.06985277 -68.01232644 228.99249305 -85.82739258 229.48144531 C-101.58026643 229.93097382 -116.7416659 231.67371019 -128.5546875 243.19140625 C-131.24519231 246.73798078 -131.07573475 250.91198539 -130.5546875 255.19140625 C-129.1704252 258.99812758 -127.71450115 260.08691271 -124.3046875 262.31640625 C-106.61494427 270.2386114 -83.78027959 269.93095147 -64.734375 271.62255859 C12.08558101 278.45096232 12.08558101 278.45096232 30.4453125 299.19140625 C40.81105678 312.97051683 43.19476004 328.02233661 40.94921875 344.92578125 C36.19040918 369.12311805 21.43500032 387.58975242 1.390625 401.27734375 C-15.92798862 412.32907518 -34.31905195 418.85012484 -54.5546875 422.19140625 C-55.75222656 422.39765625 -56.94976563 422.60390625 -58.18359375 422.81640625 C-97.10298782 428.47169661 -142.12522756 425.08509783 -174.69921875 401.6484375 C-185.59638276 392.94360234 -192.71658853 379.93499029 -194.5546875 366.19140625 C-195.75042584 347.0595928 -191.05265263 331.3302495 -178.609375 316.46875 C-169.83019146 306.73821007 -158.83484333 300.56553255 -146.5546875 296.19140625 C-147.328125 295.76730469 -148.1015625 295.34320312 -148.8984375 294.90625 C-160.02187604 288.64243251 -168.59413293 282.90838692 -172.5546875 270.19140625 C-173.94881501 261.95675977 -173.5209765 253.58933912 -169.16015625 246.296875 C-159.31885898 233.39064817 -143.57458915 228.39010811 -128.5546875 224.19140625 C-129.47507812 223.86269531 -130.39546875 223.53398438 -131.34375 223.1953125 C-152.73636331 215.27243893 -170.37145371 201.54609282 -180.4296875 180.69140625 C-189.32946828 159.35717999 -190.75579621 135.58245033 -182.2421875 113.94140625 C-172.74100162 92.65536667 -156.38779891 76.35476542 -134.62451172 67.7265625 C-112.39054054 59.29244463 -88.97925343 56.98150963 -65.5546875 60.94140625 C-57.88187354 62.20938883 -52.31130228 62.66269544 -45.5546875 58.19140625 C-44.5028125 57.61390625 -43.4509375 57.03640625 -42.3671875 56.44140625 C-33.88638003 49.65676027 -28.67386584 40.92271241 -26.5546875 30.19140625 C-26.47271137 27.87491937 -26.44720957 25.55619736 -26.45703125 23.23828125 C-26.4584462 22.57805969 -26.45986115 21.91783813 -26.46131897 21.23760986 C-26.46689505 19.13882831 -26.47944303 17.0401553 -26.4921875 14.94140625 C-26.4972056 13.51432446 -26.50176796 12.087241 -26.50585938 10.66015625 C-26.51685662 7.17053793 -26.5341047 3.68098269 -26.5546875 0.19140625 C-17.28037578 -4.11452419 -9.53774669 -3.89933518 0 0 Z " fill="#000101" transform="translate(1050.5546875,499.80859375)"/>
<path d="M0 0 C22.12118805 20.56526351 26.25255323 55.63989568 27.30419922 84.19311523 C28.10563934 120.41472432 27.65085829 164.7419556 1.4921875 193.0625 C-12.10151411 205.89221451 -27.7506415 208.24907628 -45.60546875 208.0234375 C-59.23635334 207.62918588 -71.89827182 202.44863795 -81.80078125 192.9921875 C-93.34153833 180.53620598 -99.21221535 165.10172343 -102.8203125 148.8125 C-103.01786133 147.96461914 -103.21541016 147.11673828 -103.41894531 146.24316406 C-106.96266568 130.36892079 -107.19206154 114.56324546 -107.1953125 98.375 C-107.19721588 97.3525116 -107.19911926 96.33002319 -107.20108032 95.27655029 C-107.19761604 78.8185784 -106.63016238 62.25729038 -103.0703125 46.125 C-102.90184814 45.3508374 -102.73338379 44.5766748 -102.55981445 43.77905273 C-98.26056495 25.04428308 -90.16210789 6.41579065 -73.703125 -4.58203125 C-51.6019568 -16.89040541 -20.12982812 -15.61316309 0 0 Z " fill="#37C9C9" transform="translate(737.8203125,584.1875)"/>
<path d="M0 0 C23.34607537 20.53186255 35.20360343 51.14986353 37.80151367 81.57543945 C38.19978484 88.4469643 38.22504617 95.32404177 38.24023438 102.20556641 C38.24995472 104.86262152 38.28107512 107.51890608 38.3125 110.17578125 C38.39393784 122.94824792 37.4244589 134.67108443 31.25 146.125 C30.89784424 146.79893799 30.54568848 147.47287598 30.18286133 148.16723633 C24.6463614 158.61372112 18.12930088 167.62879569 10.3359375 176.47167969 C9.12046386 177.86218864 7.93354308 179.27752652 6.75 180.6953125 C-4.99757795 194.47280282 -20.33840293 204.01764441 -37.375 209.8125 C-38.18775391 210.09053467 -39.00050781 210.36856934 -39.83789062 210.6550293 C-53.88749693 215.16567792 -67.57909622 216.55492009 -82.25 216.4375 C-83.05915863 216.43445862 -83.86831726 216.43141724 -84.70199585 216.42828369 C-97.141885 216.35924564 -109.04296059 215.72664843 -121 212 C-121.69738281 211.78569336 -122.39476562 211.57138672 -123.11328125 211.35058594 C-137.94303056 206.62515098 -151.5017426 199.55825387 -163 189 C-163.97582031 188.11699219 -164.95164062 187.23398437 -165.95703125 186.32421875 C-183.25755418 170.16463428 -193.18970307 149.67432949 -199 127 C-199.35191406 125.63875 -199.35191406 125.63875 -199.7109375 124.25 C-202.13907842 114.11515096 -202.24118029 103.86480317 -202.25 93.5 C-202.25067474 92.78690674 -202.25134949 92.07381348 -202.25204468 91.33911133 C-202.20138468 57.62512242 -190.6218472 26.40924211 -167 2 C-122.7288233 -40.38080965 -45.46519157 -39.42838244 0 0 Z M-128 2 C-138.05005694 15.51373728 -142.68444671 30.77013611 -146 47 C-146.21527344 48.010625 -146.43054688 49.02125 -146.65234375 50.0625 C-152.55683556 79.71425447 -151.81117296 115.65095236 -145 145 C-144.81808105 145.83466797 -144.63616211 146.66933594 -144.44873047 147.52929688 C-140.48825537 165.32489007 -132.64714272 184.07742401 -117.08203125 194.73046875 C-101.45926713 204.25654443 -83.37649411 206.84568644 -65.4375 202.875 C-48.82339496 197.77023942 -37.46952347 187.80722966 -29.19140625 172.69921875 C-8.60560592 132.50815661 -9.56550526 72.23527003 -22.65234375 29.88916016 C-28.05029696 13.34077393 -35.86352293 -1.43387622 -51.75 -9.9375 C-76.3553432 -21.16749518 -109.26634292 -19.04371953 -128 2 Z " fill="#000101" transform="translate(780,588)"/>
<path d="M0 0 C0 116.49 0 232.98 0 353 C3.63 353 7.26 353 11 353 C12.89178572 353.10934001 14.78279016 353.24537989 16.66796875 353.4375 C17.57998047 353.52773438 18.49199219 353.61796875 19.43164062 353.7109375 C20.79579102 353.85402344 20.79579102 353.85402344 22.1875 354 C23.13947266 354.09539062 24.09144531 354.19078125 25.07226562 354.2890625 C27.38200247 354.52119686 29.69107871 354.75988934 32 355 C32 358.96 32 362.92 32 367 C-4.63 367 -41.26 367 -79 367 C-79 363.04 -79 359.08 -79 355 C-75.91736061 354.65883833 -72.83415158 354.32697309 -69.75 354 C-68.46996094 353.85691406 -68.46996094 353.85691406 -67.1640625 353.7109375 C-60.32964431 352.99689381 -53.96740241 353 -47 353 C-47 244.1 -47 135.2 -47 23 C-57.56 22.67 -68.12 22.34 -79 22 C-82.63 21.67 -86.26 21.34 -90 21 C-90 17.04 -90 13.08 -90 9 C-80.0382672 7.81834636 -70.07567103 6.64428307 -60.11193466 5.47963715 C-55.48433857 4.93848859 -50.85706783 4.39482747 -46.23046875 3.84521484 C-41.75725423 3.3139206 -37.28328047 2.78950004 -32.80872345 2.26963806 C-31.11020989 2.07111698 -29.41197331 1.87020968 -27.71404266 1.66676331 C-25.31756142 1.38004904 -22.92019376 1.10219758 -20.52246094 0.82617188 C-19.83624664 0.74201523 -19.15003235 0.65785858 -18.44302368 0.57115173 C-12.19311753 -0.13231002 -6.42423521 0 0 0 Z " fill="#000000" transform="translate(512,432)"/>
<path d="M0 0 C26.02067087 -0.85929976 50.22977403 3.80228315 69.94384766 22.03515625 C76.60781551 29.04774214 79.36252623 36.58161362 79.12744141 46.20703125 C78.47932694 53.8903237 76.27295004 59.76143798 70.92041016 65.38671875 C63.78787884 71.31452309 54.89926208 72.86537462 45.88525391 72.078125 C42.7884268 71.29365628 39.84391725 70.27874201 36.88525391 69.078125 C36.95744141 68.53027344 37.02962891 67.98242188 37.10400391 67.41796875 C38.47291831 55.7251582 39.04234179 44.25367295 34.88525391 33.078125 C34.61841797 32.34980469 34.35158203 31.62148438 34.07666016 30.87109375 C31.18438303 24.14815626 25.84954726 19.20950322 19.19775391 16.203125 C5.45703557 11.53646594 -10.11562119 12.92311767 -23.11474609 19.078125 C-31.91356809 24.01623938 -37.50380687 32.17415243 -41.05224609 41.515625 C-43.67246031 51.71808412 -43.95723481 65.22954951 -39.57568359 74.91015625 C-35.36380945 81.16039729 -30.86677754 85.38709563 -24.30224609 89.078125 C-23.17496094 89.72128662 -23.17496094 89.72128662 -22.02490234 90.37744141 C-11.91732375 96.01224745 -1.3393704 99.95390907 9.55712891 103.7890625 C35.74521671 113.03069403 35.74521671 113.03069403 46.88525391 118.890625 C47.68350586 119.30989258 48.48175781 119.72916016 49.30419922 120.16113281 C63.88232178 128.18757223 74.50548181 139.09278508 79.88525391 155.04296875 C85.06746974 173.20563867 84.14329561 190.94588511 75.01416016 207.625 C64.79328688 224.95836159 45.46774337 236.93857474 26.33398438 241.93017578 C23.19461269 242.69869397 20.04450254 243.39563923 16.88525391 244.078125 C16.31347412 244.2531958 15.74169434 244.4282666 15.15258789 244.60864258 C11.86488385 245.28940654 8.58860735 245.28084031 5.24462891 245.31640625 C4.49379532 245.3262001 3.74296173 245.33599396 2.96937561 245.34608459 C-26.96668224 245.65530283 -62.88494003 244.46538848 -85.98193359 222.51953125 C-91.5379997 216.15956547 -94.49412706 208.66779247 -94.32177734 200.22265625 C-93.69286075 193.70802962 -90.97033049 189.07575308 -86.19287109 184.6796875 C-79.4036724 179.44741031 -72.40957865 177.56984151 -64.11474609 176.078125 C-63.969646 176.64096191 -63.8245459 177.20379883 -63.67504883 177.78369141 C-58.72954562 196.6910418 -53.58954408 213.99598375 -35.93115234 224.54296875 C-21.63275163 232.33668786 -3.70405787 234.92890906 12.14819336 230.6418457 C22.35759455 227.52247536 32.13595921 223.14773581 37.67041016 213.5546875 C38.07130859 212.73742187 38.47220703 211.92015625 38.88525391 211.078125 C39.29646484 210.24023438 39.70767578 209.40234375 40.13134766 208.5390625 C44.25092033 198.41831304 44.78110449 185.97280037 41.88525391 175.44140625 C35.85593979 162.06386556 23.35196092 155.45091071 10.88525391 149.078125 C10.26924316 148.76053223 9.65323242 148.44293945 9.01855469 148.11572266 C1.58584412 144.33444851 -6.04343876 141.07785997 -13.77880859 137.96875 C-14.46871887 137.69105774 -15.15862915 137.41336548 -15.8694458 137.1272583 C-19.33418975 135.73555071 -22.803198 134.35642763 -26.28076172 132.99707031 C-46.39535161 125.05628088 -69.85930997 114.42707304 -79.11865234 93.6015625 C-79.44736328 92.76882813 -79.77607422 91.93609375 -80.11474609 91.078125 C-80.43314453 90.30726563 -80.75154297 89.53640625 -81.07958984 88.7421875 C-86.39303265 73.21811958 -83.8371101 55.48658021 -76.98974609 41.015625 C-73.6637087 34.41089912 -69.40609985 29.208593 -64.11474609 24.078125 C-63.39287109 23.35882812 -62.67099609 22.63953125 -61.92724609 21.8984375 C-45.7885705 6.62433382 -21.70387739 0.80180568 0 0 Z " fill="#000101" transform="translate(1199.11474609375,558.921875)"/>
<path d="M0 0 C10.99006509 1.87675543 21.99724243 3.3840737 33.0703125 4.6875 C34.34204819 4.83738876 35.61378387 4.98727753 36.92405701 5.14170837 C43.35613431 5.89499155 49.78985362 6.63069148 56.22583008 7.34985352 C96.96738175 11.99300276 96.96738175 11.99300276 107.6875 23.9375 C113.66960063 33.49073343 114.09450365 44.47868546 112.0390625 55.375 C109.87677999 62.47172209 106.36660053 68.21859936 101.6875 73.9375 C101.18734375 74.55109375 100.6871875 75.1646875 100.171875 75.796875 C84.00282096 93.59916683 56.8553539 101.68321971 33.61914062 103.06005859 C8.80779972 104.03758277 -15.74152978 99.6416859 -34.5625 82.375 C-44.34888153 72.1678664 -48.84497741 59.30752034 -48.5546875 45.29296875 C-47.41332822 29.47961996 -39.45680766 14.01299248 -27.60546875 3.546875 C-18.14175301 -3.85838547 -11.26443895 -1.99302687 0 0 Z " fill="#37C9C9" transform="translate(941.3125,805.0625)"/>
<path d="M0 0 C1.49273438 -0.0309375 1.49273438 -0.0309375 3.015625 -0.0625 C14.95002227 -0.12482061 24.2073285 3.08393315 33.00390625 11.21875 C43.72826391 22.45185328 47.77810133 36.696431 49.5625 51.75 C49.6877002 52.80026367 49.81290039 53.85052734 49.94189453 54.93261719 C52.8341886 80.78618457 50.934237 110.34844262 34.87890625 131.93359375 C27.94339339 140.25373662 19.63226406 145.42601873 8.875 147.25 C5.41122041 147.53827384 1.97438453 147.57508835 -1.5 147.5625 C-2.38171875 147.57861328 -3.2634375 147.59472656 -4.171875 147.61132812 C-15.48727473 147.61962387 -25.46547882 144.00994876 -34.0625 136.57421875 C-47.33059504 122.74341433 -51.21571084 101.61335624 -51.328125 83.12109375 C-51.33382507 82.36893082 -51.33952515 81.61676788 -51.34539795 80.84181213 C-51.35478192 79.25775529 -51.36135539 77.6736795 -51.36523438 76.08959961 C-51.37487775 73.71757076 -51.40593814 71.34643348 -51.4375 68.97460938 C-51.5863525 47.74339608 -47.01052021 27.14096121 -32.22265625 11.19921875 C-22.91874187 2.31388538 -12.37116339 0.0626388 0 0 Z " fill="#37C9C9" transform="translate(964.125,570.75)"/>
<path d="M0 0 C22.47033504 2.15734608 44.11108983 8.54809431 59.04296875 26.44921875 C71.28848061 43.08118262 72.74677679 63.5567365 69.875 83.4375 C67.73804061 96.58628789 63.58432506 108.61772595 55 119 C54.32066406 119.85207031 53.64132812 120.70414063 52.94140625 121.58203125 C38.64562833 138.5789722 15.26970353 144.87961936 -6.20166016 146.82348633 C-11.79845958 147.17652122 -17.3938755 147.18450528 -23 147.1875 C-24.2065625 147.19974609 -25.413125 147.21199219 -26.65625 147.22460938 C-33.60845638 147.23594449 -40.29067189 146.97789969 -47 145 C-49.37843789 142.62156211 -48.39090194 136.32822963 -48.40766907 133.02522278 C-48.24363636 123.51116223 -45.68963882 115.14146459 -42.6875 106.1875 C-42.13643457 104.48114298 -41.58698257 102.77426414 -41.0390625 101.06689453 C-39.40788786 96.02777138 -37.71706653 91.01043726 -36 86 C-35.7542926 85.28213318 -35.50858521 84.56426636 -35.25543213 83.824646 C-9.81160321 9.81160321 -9.81160321 9.81160321 0 0 Z " fill="#37C9C9" transform="translate(275,641)"/>
<path d="M0 0 C70.31640625 0 70.31640625 0 87.09765625 16 C94.0313998 23.25775025 99.26177121 32.80541195 100 43 C99.7636226 49.65932206 96.98833395 53.79489537 93.4375 59.1875 C88.05341285 67.62930092 82.89863828 76.17895358 77.9375 84.875 C77.60075256 85.46441376 77.26400513 86.05382751 76.91705322 86.66110229 C71.6850472 95.83867632 66.68160853 105.12530285 61.89233398 114.54248047 C60.61755993 117.04099122 59.3138652 119.52187573 58 122 C57.61328125 122.77351807 57.2265625 123.54703613 56.828125 124.34399414 C54.68490204 128.28340416 53.70924435 129.72384086 49.3984375 131.40234375 C48.06249705 131.6162517 46.72034552 131.79418584 45.375 131.9375 C44.72660156 132.03611328 44.07820313 132.13472656 43.41015625 132.23632812 C28.84485463 134.34334749 14.83100394 134 0 134 C0 89.78 0 45.56 0 0 Z " fill="#37C9C9" transform="translate(227,492)"/>
<path d="M0 0 C39 0 39 0 44 1 C43.76514893 1.53439697 43.53029785 2.06879395 43.28833008 2.61938477 C40.68482408 8.55323225 38.10413136 14.49671357 35.53564453 20.44580078 C34.51865833 22.79958219 33.49883852 25.1521415 32.47607422 27.50341797 C20.28155892 55.60986491 9.07886898 84.41595121 1 114 C0.67 114 0.34 114 0 114 C0 76.38 0 38.76 0 0 Z " fill="#37C7C7" transform="translate(227,640)"/>
<path d="M0 0 C0.33 0 0.66 0 1 0 C1.70152412 20.75991741 -0.7518091 40.16560977 -14 57 C-14.60328125 57.82371094 -15.2065625 58.64742187 -15.828125 59.49609375 C-21.56868372 66.11425587 -31.45951308 72.6938731 -40 75 C-40.66 74.67 -41.32 74.34 -42 74 C-34.36988678 58.98549624 -26.25969796 44.34050939 -17.6796875 29.84960938 C-14.62586267 24.66876003 -11.63273326 19.45271976 -8.63842773 14.23730469 C-2.40937376 3.43519253 -2.40937376 3.43519253 0 0 Z " fill="#36C6C6" transform="translate(327,545)"/>
</svg>
